<svg xmlns="http://www.w3.org/2000/svg" xmlns:xlink="http://www.w3.org/1999/xlink" width="793" zoomAndPan="magnify" viewBox="0 0 595.5 842.249979" height="1122" preserveAspectRatio="xMidYMid meet" version="1.0"><defs><g/><clipPath id="4df0d9b2e2"><path d="M 0.015625 0 L 594.984375 0 L 594.984375 841.5 L 0.015625 841.5 Z M 0.015625 0 " clip-rule="nonzero"/></clipPath></defs><g clip-path="url(#4df0d9b2e2)"><path fill="#ffffff" d="M 0.015625 0 L 594.984375 0 L 594.984375 841.5 L 0.015625 841.5 Z M 0.015625 0 " fill-opacity="1" fill-rule="nonzero"/><path fill="#e3c879" d="M 0.015625 0 L 594.984375 0 L 594.984375 841.5 L 0.015625 841.5 Z M 0.015625 0 " fill-opacity="1" fill-rule="nonzero"/></g><g fill="#db3964" fill-opacity="1"><g transform="translate(177.477588, 270.629806)"><g><path d="M 24.828125 -52.234375 C 30.304688 -52.234375 35.109375 -51.132812 39.234375 -48.9375 C 43.359375 -46.738281 46.53125 -43.660156 48.75 -39.703125 C 50.976562 -35.753906 52.09375 -31.238281 52.09375 -26.15625 C 52.09375 -21.113281 50.96875 -16.617188 48.71875 -12.671875 C 46.46875 -8.722656 43.28125 -5.625 39.15625 -3.375 C 35.03125 -1.125 30.253906 0 24.828125 0 L 4.15625 0 L 4.15625 -52.234375 Z M 23.703125 -12.8125 C 27.953125 -12.8125 31.285156 -13.972656 33.703125 -16.296875 C 36.128906 -18.617188 37.34375 -21.90625 37.34375 -26.15625 C 37.34375 -30.445312 36.128906 -33.765625 33.703125 -36.109375 C 31.285156 -38.460938 27.953125 -39.640625 23.703125 -39.640625 L 18.671875 -39.640625 L 18.671875 -12.8125 Z M 23.703125 -12.8125 "/></g></g></g><g fill="#db3964" fill-opacity="1"><g transform="translate(231.931617, 270.629806)"><g><path d="M 29.1875 0.515625 C 24.300781 0.515625 19.804688 -0.628906 15.703125 -2.921875 C 11.609375 -5.222656 8.363281 -8.410156 5.96875 -12.484375 C 3.570312 -16.554688 2.375 -21.160156 2.375 -26.296875 C 2.375 -31.441406 3.570312 -36.050781 5.96875 -40.125 C 8.363281 -44.195312 11.609375 -47.367188 15.703125 -49.640625 C 19.804688 -51.910156 24.300781 -53.046875 29.1875 -53.046875 C 34.132812 -53.046875 38.644531 -51.910156 42.71875 -49.640625 C 46.789062 -47.367188 50.007812 -44.195312 52.375 -40.125 C 54.75 -36.050781 55.9375 -31.441406 55.9375 -26.296875 C 55.9375 -21.160156 54.75 -16.554688 52.375 -12.484375 C 50.007812 -8.410156 46.773438 -5.222656 42.671875 -2.921875 C 38.578125 -0.628906 34.082031 0.515625 29.1875 0.515625 Z M 29.1875 -12.96875 C 32.894531 -12.96875 35.820312 -14.175781 37.96875 -16.59375 C 40.125 -19.019531 41.203125 -22.253906 41.203125 -26.296875 C 41.203125 -30.453125 40.125 -33.726562 37.96875 -36.125 C 35.820312 -38.519531 32.894531 -39.71875 29.1875 -39.71875 C 25.4375 -39.71875 22.5 -38.519531 20.375 -36.125 C 18.25 -33.726562 17.1875 -30.453125 17.1875 -26.296875 C 17.1875 -22.203125 18.25 -18.957031 20.375 -16.5625 C 22.5 -14.164062 25.4375 -12.96875 29.1875 -12.96875 Z M 29.1875 -12.96875 "/></g></g></g><g fill="#db3964" fill-opacity="1"><g transform="translate(290.238181, 270.629806)"><g><path d="M 52.53125 0 L 38.015625 0 L 18.671875 -29.1875 L 18.671875 0 L 4.15625 0 L 4.15625 -52.234375 L 18.671875 -52.234375 L 38.015625 -22.671875 L 38.015625 -52.234375 L 52.53125 -52.234375 Z M 52.53125 0 "/></g></g></g><g fill="#db3964" fill-opacity="1"><g transform="translate(346.914831, 270.629806)"><g><path d="M 7.703125 -52.234375 L 22.375 -52.234375 L 13.859375 -31.34375 L 4.15625 -31.34375 Z M 7.703125 -52.234375 "/></g></g></g><g fill="#db3964" fill-opacity="1"><g transform="translate(372.548969, 270.629806)"><g><path d="M 43.5 -52.234375 L 43.5 -40.671875 L 29.5625 -40.671875 L 29.5625 0 L 15.046875 0 L 15.046875 -40.671875 L 1.265625 -40.671875 L 1.265625 -52.234375 Z M 43.5 -52.234375 "/></g></g></g><g fill="#db3964" fill-opacity="1"><g transform="translate(178.031482, 357.815687)"><g><path d="M 45.421875 -34.828125 C 45.421875 -31.660156 44.691406 -28.78125 43.234375 -26.1875 C 41.773438 -23.59375 39.578125 -21.519531 36.640625 -19.96875 C 33.703125 -18.414062 30.109375 -17.640625 25.859375 -17.640625 L 18.671875 -17.640625 L 18.671875 0 L 4.15625 0 L 4.15625 -52.234375 L 25.859375 -52.234375 C 30.054688 -52.234375 33.625 -51.492188 36.5625 -50.015625 C 39.5 -48.535156 41.707031 -46.484375 43.1875 -43.859375 C 44.675781 -41.242188 45.421875 -38.234375 45.421875 -34.828125 Z M 24.453125 -29.1875 C 28.546875 -29.1875 30.59375 -31.066406 30.59375 -34.828125 C 30.59375 -38.628906 28.546875 -40.53125 24.453125 -40.53125 L 18.671875 -40.53125 L 18.671875 -29.1875 Z M 24.453125 -29.1875 "/></g></g></g><g fill="#db3964" fill-opacity="1"><g transform="translate(225.150891, 357.815687)"><g><path d="M 37.1875 -8.515625 L 18.671875 -8.515625 L 15.859375 0 L 0.59375 0 L 19.640625 -52.234375 L 36.375 -52.234375 L 55.34375 0 L 40.015625 0 Z M 33.5625 -19.640625 L 27.9375 -36.53125 L 22.375 -19.640625 Z M 33.5625 -19.640625 "/></g></g></g><g fill="#db3964" fill-opacity="1"><g transform="translate(281.086667, 357.815687)"><g><path d="M 52.53125 0 L 38.015625 0 L 18.671875 -29.1875 L 18.671875 0 L 4.15625 0 L 4.15625 -52.234375 L 18.671875 -52.234375 L 38.015625 -22.671875 L 38.015625 -52.234375 L 52.53125 -52.234375 Z M 52.53125 0 "/></g></g></g><g fill="#db3964" fill-opacity="1"><g transform="translate(337.763317, 357.815687)"><g><path d="M 18.671875 -52.234375 L 18.671875 0 L 4.15625 0 L 4.15625 -52.234375 Z M 18.671875 -52.234375 "/></g></g></g><g fill="#db3964" fill-opacity="1"><g transform="translate(360.582155, 357.815687)"><g><path d="M 2.375 -26.234375 C 2.375 -31.367188 3.445312 -35.945312 5.59375 -39.96875 C 7.738281 -44 10.785156 -47.132812 14.734375 -49.375 C 18.691406 -51.625 23.238281 -52.75 28.375 -52.75 C 34.894531 -52.75 40.378906 -51.007812 44.828125 -47.53125 C 49.273438 -44.050781 52.140625 -39.320312 53.421875 -33.34375 L 37.78125 -33.34375 C 36.84375 -35.320312 35.546875 -36.828125 33.890625 -37.859375 C 32.242188 -38.898438 30.332031 -39.421875 28.15625 -39.421875 C 24.800781 -39.421875 22.117188 -38.222656 20.109375 -35.828125 C 18.109375 -33.429688 17.109375 -30.234375 17.109375 -26.234375 C 17.109375 -22.179688 18.109375 -18.957031 20.109375 -16.5625 C 22.117188 -14.164062 24.800781 -12.96875 28.15625 -12.96875 C 30.332031 -12.96875 32.242188 -13.484375 33.890625 -14.515625 C 35.546875 -15.554688 36.84375 -17.066406 37.78125 -19.046875 L 53.421875 -19.046875 C 52.140625 -13.066406 49.273438 -8.332031 44.828125 -4.84375 C 40.378906 -1.363281 34.894531 0.375 28.375 0.375 C 23.238281 0.375 18.691406 -0.75 14.734375 -3 C 10.785156 -5.25 7.738281 -8.382812 5.59375 -12.40625 C 3.445312 -16.4375 2.375 -21.046875 2.375 -26.234375 Z M 2.375 -26.234375 "/></g></g></g><g fill="#db3964" fill-opacity="1"><g transform="translate(46.020841, 77.023121)"><g><path d="M 10.515625 -13.5 L 10.515625 -11.3125 L 6.921875 -11.3125 L 6.921875 0 L 4.21875 0 L 4.21875 -11.3125 L 0.625 -11.3125 L 0.625 -13.5 Z M 10.515625 -13.5 "/></g></g></g><g fill="#db3964" fill-opacity="1"><g transform="translate(60.520553, 77.023121)"><g><path d="M 12.53125 -13.5 L 12.53125 0 L 9.828125 0 L 9.828125 -5.75 L 4.046875 -5.75 L 4.046875 0 L 1.328125 0 L 1.328125 -13.5 L 4.046875 -13.5 L 4.046875 -7.953125 L 9.828125 -7.953125 L 9.828125 -13.5 Z M 12.53125 -13.5 "/></g></g></g><g fill="#db3964" fill-opacity="1"><g transform="translate(77.726522, 77.023121)"><g><path d="M 4.046875 -11.3125 L 4.046875 -7.9375 L 8.59375 -7.9375 L 8.59375 -5.78125 L 4.046875 -5.78125 L 4.046875 -2.203125 L 9.171875 -2.203125 L 9.171875 0 L 1.328125 0 L 1.328125 -13.515625 L 9.171875 -13.515625 L 9.171875 -11.3125 Z M 4.046875 -11.3125 "/></g></g></g><g fill="#db3964" fill-opacity="1"><g transform="translate(91.356365, 77.023121)"><g/></g></g><g fill="#db3964" fill-opacity="1"><g transform="translate(99.303052, 77.023121)"><g><path d="M 12.53125 -13.5 L 12.53125 0 L 9.828125 0 L 9.828125 -5.75 L 4.046875 -5.75 L 4.046875 0 L 1.328125 0 L 1.328125 -13.5 L 4.046875 -13.5 L 4.046875 -7.953125 L 9.828125 -7.953125 L 9.828125 -13.5 Z M 12.53125 -13.5 "/></g></g></g><g fill="#db3964" fill-opacity="1"><g transform="translate(116.509022, 77.023121)"><g><path d="M 4.046875 -13.5 L 4.046875 0 L 1.328125 0 L 1.328125 -13.5 Z M 4.046875 -13.5 "/></g></g></g><g fill="#db3964" fill-opacity="1"><g transform="translate(125.228927, 77.023121)"><g><path d="M 10.515625 -13.5 L 10.515625 -11.3125 L 6.921875 -11.3125 L 6.921875 0 L 4.21875 0 L 4.21875 -11.3125 L 0.625 -11.3125 L 0.625 -13.5 Z M 10.515625 -13.5 "/></g></g></g><g fill="#db3964" fill-opacity="1"><g transform="translate(139.728639, 77.023121)"><g><path d="M 0.671875 -6.765625 C 0.671875 -8.097656 0.96875 -9.289062 1.5625 -10.34375 C 2.164062 -11.394531 2.988281 -12.210938 4.03125 -12.796875 C 5.070312 -13.378906 6.238281 -13.671875 7.53125 -13.671875 C 9.03125 -13.671875 10.347656 -13.285156 11.484375 -12.515625 C 12.617188 -11.742188 13.414062 -10.671875 13.875 -9.296875 L 10.75 -9.296875 C 10.445312 -9.941406 10.015625 -10.425781 9.453125 -10.75 C 8.890625 -11.070312 8.238281 -11.234375 7.5 -11.234375 C 6.71875 -11.234375 6.019531 -11.050781 5.40625 -10.6875 C 4.789062 -10.320312 4.3125 -9.800781 3.96875 -9.125 C 3.632812 -8.457031 3.46875 -7.671875 3.46875 -6.765625 C 3.46875 -5.878906 3.632812 -5.097656 3.96875 -4.421875 C 4.3125 -3.742188 4.789062 -3.21875 5.40625 -2.84375 C 6.019531 -2.476562 6.71875 -2.296875 7.5 -2.296875 C 8.238281 -2.296875 8.890625 -2.457031 9.453125 -2.78125 C 10.015625 -3.113281 10.445312 -3.601562 10.75 -4.25 L 13.875 -4.25 C 13.414062 -2.875 12.625 -1.800781 11.5 -1.03125 C 10.375 -0.269531 9.050781 0.109375 7.53125 0.109375 C 6.238281 0.109375 5.070312 -0.179688 4.03125 -0.765625 C 2.988281 -1.347656 2.164062 -2.160156 1.5625 -3.203125 C 0.96875 -4.253906 0.671875 -5.441406 0.671875 -6.765625 Z M 0.671875 -6.765625 "/></g></g></g><g fill="#db3964" fill-opacity="1"><g transform="translate(157.920464, 77.023121)"><g><path d="M 12.53125 -13.5 L 12.53125 0 L 9.828125 0 L 9.828125 -5.75 L 4.046875 -5.75 L 4.046875 0 L 1.328125 0 L 1.328125 -13.5 L 4.046875 -13.5 L 4.046875 -7.953125 L 9.828125 -7.953125 L 9.828125 -13.5 Z M 12.53125 -13.5 "/></g></g></g><g fill="#db3964" fill-opacity="1"><g transform="translate(175.12644, 77.023121)"><g><path d="M 12.53125 -13.5 L 12.53125 0 L 9.828125 0 L 9.828125 -5.75 L 4.046875 -5.75 L 4.046875 0 L 1.328125 0 L 1.328125 -13.5 L 4.046875 -13.5 L 4.046875 -7.953125 L 9.828125 -7.953125 L 9.828125 -13.5 Z M 12.53125 -13.5 "/></g></g></g><g fill="#db3964" fill-opacity="1"><g transform="translate(192.332415, 77.023121)"><g><path d="M 4.046875 -13.5 L 4.046875 0 L 1.328125 0 L 1.328125 -13.5 Z M 4.046875 -13.5 "/></g></g></g><g fill="#db3964" fill-opacity="1"><g transform="translate(201.052326, 77.023121)"><g><path d="M 8.953125 0 L 4.046875 -6.015625 L 4.046875 0 L 1.328125 0 L 1.328125 -13.5 L 4.046875 -13.5 L 4.046875 -7.453125 L 8.953125 -13.5 L 12.21875 -13.5 L 6.65625 -6.8125 L 12.375 0 Z M 8.953125 0 "/></g></g></g><g fill="#db3964" fill-opacity="1"><g transform="translate(217.214455, 77.023121)"><g><path d="M 4.046875 -11.3125 L 4.046875 -7.9375 L 8.59375 -7.9375 L 8.59375 -5.78125 L 4.046875 -5.78125 L 4.046875 -2.203125 L 9.171875 -2.203125 L 9.171875 0 L 1.328125 0 L 1.328125 -13.515625 L 9.171875 -13.515625 L 9.171875 -11.3125 Z M 4.046875 -11.3125 "/></g></g></g><g fill="#db3964" fill-opacity="1"><g transform="translate(230.844292, 77.023121)"><g><path d="M 8.296875 0 L 5.3125 -5.265625 L 4.046875 -5.265625 L 4.046875 0 L 1.328125 0 L 1.328125 -13.5 L 6.40625 -13.5 C 7.445312 -13.5 8.332031 -13.316406 9.0625 -12.953125 C 9.800781 -12.585938 10.351562 -12.085938 10.71875 -11.453125 C 11.09375 -10.828125 11.28125 -10.128906 11.28125 -9.359375 C 11.28125 -8.472656 11.019531 -7.671875 10.5 -6.953125 C 9.988281 -6.234375 9.222656 -5.738281 8.203125 -5.46875 L 11.4375 0 Z M 4.046875 -7.296875 L 6.3125 -7.296875 C 7.039062 -7.296875 7.582031 -7.472656 7.9375 -7.828125 C 8.300781 -8.179688 8.484375 -8.671875 8.484375 -9.296875 C 8.484375 -9.921875 8.300781 -10.40625 7.9375 -10.75 C 7.582031 -11.09375 7.039062 -11.265625 6.3125 -11.265625 L 4.046875 -11.265625 Z M 4.046875 -7.296875 "/></g></g></g><g fill="#db3964" fill-opacity="1"><g transform="translate(246.581148, 77.023121)"><g><path d="M 1.875 -13.5 L 4.71875 -13.5 L 2.625 -8.625 L 0.78125 -8.625 Z M 1.875 -13.5 "/></g></g></g><g fill="#db3964" fill-opacity="1"><g transform="translate(255.243066, 77.023121)"><g><path d="M 6 0.140625 C 5.050781 0.140625 4.203125 -0.0195312 3.453125 -0.34375 C 2.703125 -0.664062 2.101562 -1.128906 1.65625 -1.734375 C 1.21875 -2.347656 0.992188 -3.066406 0.984375 -3.890625 L 3.890625 -3.890625 C 3.929688 -3.335938 4.128906 -2.898438 4.484375 -2.578125 C 4.835938 -2.253906 5.320312 -2.09375 5.9375 -2.09375 C 6.570312 -2.09375 7.066406 -2.242188 7.421875 -2.546875 C 7.785156 -2.847656 7.96875 -3.242188 7.96875 -3.734375 C 7.96875 -4.128906 7.84375 -4.457031 7.59375 -4.71875 C 7.351562 -4.976562 7.046875 -5.179688 6.671875 -5.328125 C 6.304688 -5.472656 5.804688 -5.640625 5.171875 -5.828125 C 4.285156 -6.078125 3.566406 -6.328125 3.015625 -6.578125 C 2.472656 -6.835938 2.003906 -7.21875 1.609375 -7.71875 C 1.222656 -8.226562 1.03125 -8.910156 1.03125 -9.765625 C 1.03125 -10.566406 1.226562 -11.265625 1.625 -11.859375 C 2.019531 -12.453125 2.578125 -12.90625 3.296875 -13.21875 C 4.023438 -13.539062 4.851562 -13.703125 5.78125 -13.703125 C 7.175781 -13.703125 8.304688 -13.363281 9.171875 -12.6875 C 10.046875 -12.007812 10.53125 -11.0625 10.625 -9.84375 L 7.640625 -9.84375 C 7.617188 -10.3125 7.421875 -10.695312 7.046875 -11 C 6.679688 -11.300781 6.195312 -11.453125 5.59375 -11.453125 C 5.0625 -11.453125 4.632812 -11.316406 4.3125 -11.046875 C 4 -10.773438 3.84375 -10.378906 3.84375 -9.859375 C 3.84375 -9.503906 3.960938 -9.207031 4.203125 -8.96875 C 4.441406 -8.726562 4.738281 -8.53125 5.09375 -8.375 C 5.445312 -8.226562 5.945312 -8.0625 6.59375 -7.875 C 7.46875 -7.613281 8.179688 -7.351562 8.734375 -7.09375 C 9.296875 -6.84375 9.773438 -6.457031 10.171875 -5.9375 C 10.578125 -5.425781 10.78125 -4.75 10.78125 -3.90625 C 10.78125 -3.1875 10.59375 -2.515625 10.21875 -1.890625 C 9.84375 -1.273438 9.289062 -0.78125 8.5625 -0.40625 C 7.84375 -0.0390625 6.988281 0.140625 6 0.140625 Z M 6 0.140625 "/></g></g></g><g fill="#db3964" fill-opacity="1"><g transform="translate(270.361347, 77.023121)"><g/></g></g><g fill="#db3964" fill-opacity="1"><g transform="translate(278.308029, 77.023121)"><g><path d="M 10.734375 -9.4375 C 10.421875 -10.007812 9.992188 -10.441406 9.453125 -10.734375 C 8.910156 -11.035156 8.28125 -11.1875 7.5625 -11.1875 C 6.757812 -11.1875 6.046875 -11.003906 5.421875 -10.640625 C 4.804688 -10.273438 4.328125 -9.753906 3.984375 -9.078125 C 3.640625 -8.410156 3.46875 -7.640625 3.46875 -6.765625 C 3.46875 -5.867188 3.644531 -5.082031 4 -4.40625 C 4.351562 -3.738281 4.84375 -3.222656 5.46875 -2.859375 C 6.101562 -2.503906 6.835938 -2.328125 7.671875 -2.328125 C 8.710938 -2.328125 9.5625 -2.597656 10.21875 -3.140625 C 10.875 -3.691406 11.304688 -4.457031 11.515625 -5.4375 L 6.859375 -5.4375 L 6.859375 -7.5 L 14.171875 -7.5 L 14.171875 -5.140625 C 13.992188 -4.203125 13.609375 -3.332031 13.015625 -2.53125 C 12.421875 -1.726562 11.65625 -1.085938 10.71875 -0.609375 C 9.789062 -0.128906 8.742188 0.109375 7.578125 0.109375 C 6.273438 0.109375 5.097656 -0.179688 4.046875 -0.765625 C 2.992188 -1.347656 2.164062 -2.160156 1.5625 -3.203125 C 0.96875 -4.253906 0.671875 -5.441406 0.671875 -6.765625 C 0.671875 -8.097656 0.96875 -9.289062 1.5625 -10.34375 C 2.164062 -11.394531 2.992188 -12.210938 4.046875 -12.796875 C 5.097656 -13.378906 6.269531 -13.671875 7.5625 -13.671875 C 9.082031 -13.671875 10.40625 -13.300781 11.53125 -12.5625 C 12.65625 -11.820312 13.425781 -10.78125 13.84375 -9.4375 Z M 10.734375 -9.4375 "/></g></g></g><g fill="#db3964" fill-opacity="1"><g transform="translate(296.499859, 77.023121)"><g><path d="M 4 -13.5 L 4 -5.140625 C 4 -4.222656 4.238281 -3.523438 4.71875 -3.046875 C 5.195312 -2.566406 5.867188 -2.328125 6.734375 -2.328125 C 7.609375 -2.328125 8.285156 -2.566406 8.765625 -3.046875 C 9.242188 -3.523438 9.484375 -4.222656 9.484375 -5.140625 L 9.484375 -13.5 L 12.203125 -13.5 L 12.203125 -5.171875 C 12.203125 -4.015625 11.953125 -3.039062 11.453125 -2.25 C 10.960938 -1.457031 10.300781 -0.859375 9.46875 -0.453125 C 8.632812 -0.0546875 7.707031 0.140625 6.6875 0.140625 C 5.6875 0.140625 4.773438 -0.0546875 3.953125 -0.453125 C 3.140625 -0.859375 2.492188 -1.457031 2.015625 -2.25 C 1.535156 -3.039062 1.296875 -4.015625 1.296875 -5.171875 L 1.296875 -13.5 Z M 4 -13.5 "/></g></g></g><g fill="#db3964" fill-opacity="1"><g transform="translate(313.319231, 77.023121)"><g><path d="M 4.046875 -13.5 L 4.046875 0 L 1.328125 0 L 1.328125 -13.5 Z M 4.046875 -13.5 "/></g></g></g><g fill="#db3964" fill-opacity="1"><g transform="translate(322.039142, 77.023121)"><g><path d="M 6.046875 -13.5 C 7.472656 -13.5 8.722656 -13.222656 9.796875 -12.671875 C 10.867188 -12.117188 11.695312 -11.328125 12.28125 -10.296875 C 12.875 -9.273438 13.171875 -8.085938 13.171875 -6.734375 C 13.171875 -5.378906 12.875 -4.191406 12.28125 -3.171875 C 11.695312 -2.160156 10.867188 -1.378906 9.796875 -0.828125 C 8.722656 -0.273438 7.472656 0 6.046875 0 L 1.328125 0 L 1.328125 -13.5 Z M 5.953125 -2.296875 C 7.367188 -2.296875 8.460938 -2.679688 9.234375 -3.453125 C 10.015625 -4.234375 10.40625 -5.328125 10.40625 -6.734375 C 10.40625 -8.140625 10.015625 -9.238281 9.234375 -10.03125 C 8.460938 -10.820312 7.367188 -11.21875 5.953125 -11.21875 L 4.046875 -11.21875 L 4.046875 -2.296875 Z M 5.953125 -2.296875 "/></g></g></g><g fill="#db3964" fill-opacity="1"><g transform="translate(339.245118, 77.023121)"><g><path d="M 4.046875 -11.3125 L 4.046875 -7.9375 L 8.59375 -7.9375 L 8.59375 -5.78125 L 4.046875 -5.78125 L 4.046875 -2.203125 L 9.171875 -2.203125 L 9.171875 0 L 1.328125 0 L 1.328125 -13.515625 L 9.171875 -13.515625 L 9.171875 -11.3125 Z M 4.046875 -11.3125 "/></g></g></g><g fill="#db3964" fill-opacity="1"><g transform="translate(352.874955, 77.023121)"><g/></g></g><g fill="#db3964" fill-opacity="1"><g transform="translate(360.821637, 77.023121)"><g><path d="M 10.515625 -13.5 L 10.515625 -11.3125 L 6.921875 -11.3125 L 6.921875 0 L 4.21875 0 L 4.21875 -11.3125 L 0.625 -11.3125 L 0.625 -13.5 Z M 10.515625 -13.5 "/></g></g></g><g fill="#db3964" fill-opacity="1"><g transform="translate(375.321344, 77.023121)"><g><path d="M 7.609375 0.140625 C 6.335938 0.140625 5.171875 -0.15625 4.109375 -0.75 C 3.054688 -1.34375 2.21875 -2.164062 1.59375 -3.21875 C 0.976562 -4.269531 0.671875 -5.460938 0.671875 -6.796875 C 0.671875 -8.109375 0.976562 -9.289062 1.59375 -10.34375 C 2.21875 -11.394531 3.054688 -12.21875 4.109375 -12.8125 C 5.171875 -13.40625 6.335938 -13.703125 7.609375 -13.703125 C 8.878906 -13.703125 10.039062 -13.40625 11.09375 -12.8125 C 12.144531 -12.21875 12.976562 -11.394531 13.59375 -10.34375 C 14.207031 -9.289062 14.515625 -8.109375 14.515625 -6.796875 C 14.515625 -5.460938 14.207031 -4.269531 13.59375 -3.21875 C 12.976562 -2.164062 12.140625 -1.34375 11.078125 -0.75 C 10.023438 -0.15625 8.867188 0.140625 7.609375 0.140625 Z M 7.609375 -2.28125 C 8.421875 -2.28125 9.132812 -2.460938 9.75 -2.828125 C 10.363281 -3.203125 10.84375 -3.726562 11.1875 -4.40625 C 11.539062 -5.09375 11.71875 -5.890625 11.71875 -6.796875 C 11.71875 -7.691406 11.539062 -8.476562 11.1875 -9.15625 C 10.84375 -9.832031 10.363281 -10.351562 9.75 -10.71875 C 9.132812 -11.082031 8.421875 -11.265625 7.609375 -11.265625 C 6.796875 -11.265625 6.070312 -11.082031 5.4375 -10.71875 C 4.8125 -10.351562 4.328125 -9.832031 3.984375 -9.15625 C 3.640625 -8.476562 3.46875 -7.691406 3.46875 -6.796875 C 3.46875 -5.890625 3.640625 -5.09375 3.984375 -4.40625 C 4.328125 -3.726562 4.8125 -3.203125 5.4375 -2.828125 C 6.070312 -2.460938 6.796875 -2.28125 7.609375 -2.28125 Z M 7.609375 -2.28125 "/></g></g></g><g fill="#db3964" fill-opacity="1"><g transform="translate(393.841784, 77.023121)"><g/></g></g><g fill="#db3964" fill-opacity="1"><g transform="translate(401.788466, 77.023121)"><g><path d="M 10.515625 -13.5 L 10.515625 -11.3125 L 6.921875 -11.3125 L 6.921875 0 L 4.21875 0 L 4.21875 -11.3125 L 0.625 -11.3125 L 0.625 -13.5 Z M 10.515625 -13.5 "/></g></g></g><g fill="#db3964" fill-opacity="1"><g transform="translate(416.288173, 77.023121)"><g><path d="M 12.53125 -13.5 L 12.53125 0 L 9.828125 0 L 9.828125 -5.75 L 4.046875 -5.75 L 4.046875 0 L 1.328125 0 L 1.328125 -13.5 L 4.046875 -13.5 L 4.046875 -7.953125 L 9.828125 -7.953125 L 9.828125 -13.5 Z M 12.53125 -13.5 "/></g></g></g><g fill="#db3964" fill-opacity="1"><g transform="translate(433.494125, 77.023121)"><g><path d="M 4.046875 -11.3125 L 4.046875 -7.9375 L 8.59375 -7.9375 L 8.59375 -5.78125 L 4.046875 -5.78125 L 4.046875 -2.203125 L 9.171875 -2.203125 L 9.171875 0 L 1.328125 0 L 1.328125 -13.515625 L 9.171875 -13.515625 L 9.171875 -11.3125 Z M 4.046875 -11.3125 "/></g></g></g><g fill="#db3964" fill-opacity="1"><g transform="translate(447.123985, 77.023121)"><g/></g></g><g fill="#db3964" fill-opacity="1"><g transform="translate(455.07069, 77.023121)"><g><path d="M 10.734375 -9.4375 C 10.421875 -10.007812 9.992188 -10.441406 9.453125 -10.734375 C 8.910156 -11.035156 8.28125 -11.1875 7.5625 -11.1875 C 6.757812 -11.1875 6.046875 -11.003906 5.421875 -10.640625 C 4.804688 -10.273438 4.328125 -9.753906 3.984375 -9.078125 C 3.640625 -8.410156 3.46875 -7.640625 3.46875 -6.765625 C 3.46875 -5.867188 3.644531 -5.082031 4 -4.40625 C 4.351562 -3.738281 4.84375 -3.222656 5.46875 -2.859375 C 6.101562 -2.503906 6.835938 -2.328125 7.671875 -2.328125 C 8.710938 -2.328125 9.5625 -2.597656 10.21875 -3.140625 C 10.875 -3.691406 11.304688 -4.457031 11.515625 -5.4375 L 6.859375 -5.4375 L 6.859375 -7.5 L 14.171875 -7.5 L 14.171875 -5.140625 C 13.992188 -4.203125 13.609375 -3.332031 13.015625 -2.53125 C 12.421875 -1.726562 11.65625 -1.085938 10.71875 -0.609375 C 9.789062 -0.128906 8.742188 0.109375 7.578125 0.109375 C 6.273438 0.109375 5.097656 -0.179688 4.046875 -0.765625 C 2.992188 -1.347656 2.164062 -2.160156 1.5625 -3.203125 C 0.96875 -4.253906 0.671875 -5.441406 0.671875 -6.765625 C 0.671875 -8.097656 0.96875 -9.289062 1.5625 -10.34375 C 2.164062 -11.394531 2.992188 -12.210938 4.046875 -12.796875 C 5.097656 -13.378906 6.269531 -13.671875 7.5625 -13.671875 C 9.082031 -13.671875 10.40625 -13.300781 11.53125 -12.5625 C 12.65625 -11.820312 13.425781 -10.78125 13.84375 -9.4375 Z M 10.734375 -9.4375 "/></g></g></g><g fill="#db3964" fill-opacity="1"><g transform="translate(473.262497, 77.023121)"><g><path d="M 9.609375 -2.578125 L 4.234375 -2.578125 L 3.34375 0 L 0.5 0 L 5.359375 -13.515625 L 8.515625 -13.515625 L 13.359375 0 L 10.5 0 Z M 8.875 -4.734375 L 6.921875 -10.390625 L 4.96875 -4.734375 Z M 8.875 -4.734375 "/></g></g></g><g fill="#db3964" fill-opacity="1"><g transform="translate(490.449126, 77.023121)"><g><path d="M 4.046875 -2.140625 L 8.484375 -2.140625 L 8.484375 0 L 1.328125 0 L 1.328125 -13.5 L 4.046875 -13.5 Z M 4.046875 -2.140625 "/></g></g></g><g fill="#db3964" fill-opacity="1"><g transform="translate(502.667859, 77.023121)"><g><path d="M 9.609375 -2.578125 L 4.234375 -2.578125 L 3.34375 0 L 0.5 0 L 5.359375 -13.515625 L 8.515625 -13.515625 L 13.359375 0 L 10.5 0 Z M 8.875 -4.734375 L 6.921875 -10.390625 L 4.96875 -4.734375 Z M 8.875 -4.734375 "/></g></g></g><g fill="#db3964" fill-opacity="1"><g transform="translate(519.854489, 77.023121)"><g><path d="M 9.421875 0 L 6.5 -4.546875 L 3.84375 0 L 0.796875 0 L 5.046875 -6.8125 L 0.734375 -13.5 L 3.84375 -13.5 L 6.765625 -8.96875 L 9.40625 -13.5 L 12.453125 -13.5 L 8.21875 -6.71875 L 12.53125 0 Z M 9.421875 0 "/></g></g></g><g fill="#db3964" fill-opacity="1"><g transform="translate(536.461236, 77.023121)"><g><path d="M 12.078125 -13.5 L 7.5 -4.703125 L 7.5 0 L 4.796875 0 L 4.796875 -4.703125 L 0.21875 -13.5 L 3.265625 -13.5 L 6.171875 -7.328125 L 9.046875 -13.5 Z M 12.078125 -13.5 "/></g></g></g><g fill="#db3964" fill-opacity="1"><g transform="translate(135.279241, 775.968434)"><g><path d="M 16.0625 -13.5 L 16.0625 0 L 13.34375 0 L 13.34375 -8.78125 L 9.734375 0 L 7.671875 0 L 4.046875 -8.78125 L 4.046875 0 L 1.328125 0 L 1.328125 -13.5 L 4.40625 -13.5 L 8.703125 -3.46875 L 13 -13.5 Z M 16.0625 -13.5 "/></g></g></g><g fill="#db3964" fill-opacity="1"><g transform="translate(156.003356, 775.968434)"><g><path d="M 4.046875 -11.3125 L 4.046875 -7.9375 L 8.59375 -7.9375 L 8.59375 -5.78125 L 4.046875 -5.78125 L 4.046875 -2.203125 L 9.171875 -2.203125 L 9.171875 0 L 1.328125 0 L 1.328125 -13.515625 L 9.171875 -13.515625 L 9.171875 -11.3125 Z M 4.046875 -11.3125 "/></g></g></g><g fill="#db3964" fill-opacity="1"><g transform="translate(169.633199, 775.968434)"><g><path d="M 10.734375 -9.4375 C 10.421875 -10.007812 9.992188 -10.441406 9.453125 -10.734375 C 8.910156 -11.035156 8.28125 -11.1875 7.5625 -11.1875 C 6.757812 -11.1875 6.046875 -11.003906 5.421875 -10.640625 C 4.804688 -10.273438 4.328125 -9.753906 3.984375 -9.078125 C 3.640625 -8.410156 3.46875 -7.640625 3.46875 -6.765625 C 3.46875 -5.867188 3.644531 -5.082031 4 -4.40625 C 4.351562 -3.738281 4.84375 -3.222656 5.46875 -2.859375 C 6.101562 -2.503906 6.835938 -2.328125 7.671875 -2.328125 C 8.710938 -2.328125 9.5625 -2.597656 10.21875 -3.140625 C 10.875 -3.691406 11.304688 -4.457031 11.515625 -5.4375 L 6.859375 -5.4375 L 6.859375 -7.5 L 14.171875 -7.5 L 14.171875 -5.140625 C 13.992188 -4.203125 13.609375 -3.332031 13.015625 -2.53125 C 12.421875 -1.726562 11.65625 -1.085938 10.71875 -0.609375 C 9.789062 -0.128906 8.742188 0.109375 7.578125 0.109375 C 6.273438 0.109375 5.097656 -0.179688 4.046875 -0.765625 C 2.992188 -1.347656 2.164062 -2.160156 1.5625 -3.203125 C 0.96875 -4.253906 0.671875 -5.441406 0.671875 -6.765625 C 0.671875 -8.097656 0.96875 -9.289062 1.5625 -10.34375 C 2.164062 -11.394531 2.992188 -12.210938 4.046875 -12.796875 C 5.097656 -13.378906 6.269531 -13.671875 7.5625 -13.671875 C 9.082031 -13.671875 10.40625 -13.300781 11.53125 -12.5625 C 12.65625 -11.820312 13.425781 -10.78125 13.84375 -9.4375 Z M 10.734375 -9.4375 "/></g></g></g><g fill="#db3964" fill-opacity="1"><g transform="translate(187.825023, 775.968434)"><g><path d="M 9.609375 -2.578125 L 4.234375 -2.578125 L 3.34375 0 L 0.5 0 L 5.359375 -13.515625 L 8.515625 -13.515625 L 13.359375 0 L 10.5 0 Z M 8.875 -4.734375 L 6.921875 -10.390625 L 4.96875 -4.734375 Z M 8.875 -4.734375 "/></g></g></g><g fill="#db3964" fill-opacity="1"><g transform="translate(205.01167, 775.968434)"><g><path d="M 6.046875 -13.5 C 7.472656 -13.5 8.722656 -13.222656 9.796875 -12.671875 C 10.867188 -12.117188 11.695312 -11.328125 12.28125 -10.296875 C 12.875 -9.273438 13.171875 -8.085938 13.171875 -6.734375 C 13.171875 -5.378906 12.875 -4.191406 12.28125 -3.171875 C 11.695312 -2.160156 10.867188 -1.378906 9.796875 -0.828125 C 8.722656 -0.273438 7.472656 0 6.046875 0 L 1.328125 0 L 1.328125 -13.5 Z M 5.953125 -2.296875 C 7.367188 -2.296875 8.460938 -2.679688 9.234375 -3.453125 C 10.015625 -4.234375 10.40625 -5.328125 10.40625 -6.734375 C 10.40625 -8.140625 10.015625 -9.238281 9.234375 -10.03125 C 8.460938 -10.820312 7.367188 -11.21875 5.953125 -11.21875 L 4.046875 -11.21875 L 4.046875 -2.296875 Z M 5.953125 -2.296875 "/></g></g></g><g fill="#db3964" fill-opacity="1"><g transform="translate(222.21764, 775.968434)"><g><path d="M 7.609375 0.140625 C 6.335938 0.140625 5.171875 -0.15625 4.109375 -0.75 C 3.054688 -1.34375 2.21875 -2.164062 1.59375 -3.21875 C 0.976562 -4.269531 0.671875 -5.460938 0.671875 -6.796875 C 0.671875 -8.109375 0.976562 -9.289062 1.59375 -10.34375 C 2.21875 -11.394531 3.054688 -12.21875 4.109375 -12.8125 C 5.171875 -13.40625 6.335938 -13.703125 7.609375 -13.703125 C 8.878906 -13.703125 10.039062 -13.40625 11.09375 -12.8125 C 12.144531 -12.21875 12.976562 -11.394531 13.59375 -10.34375 C 14.207031 -9.289062 14.515625 -8.109375 14.515625 -6.796875 C 14.515625 -5.460938 14.207031 -4.269531 13.59375 -3.21875 C 12.976562 -2.164062 12.140625 -1.34375 11.078125 -0.75 C 10.023438 -0.15625 8.867188 0.140625 7.609375 0.140625 Z M 7.609375 -2.28125 C 8.421875 -2.28125 9.132812 -2.460938 9.75 -2.828125 C 10.363281 -3.203125 10.84375 -3.726562 11.1875 -4.40625 C 11.539062 -5.09375 11.71875 -5.890625 11.71875 -6.796875 C 11.71875 -7.691406 11.539062 -8.476562 11.1875 -9.15625 C 10.84375 -9.832031 10.363281 -10.351562 9.75 -10.71875 C 9.132812 -11.082031 8.421875 -11.265625 7.609375 -11.265625 C 6.796875 -11.265625 6.070312 -11.082031 5.4375 -10.71875 C 4.8125 -10.351562 4.328125 -9.832031 3.984375 -9.15625 C 3.640625 -8.476562 3.46875 -7.691406 3.46875 -6.796875 C 3.46875 -5.890625 3.640625 -5.09375 3.984375 -4.40625 C 4.328125 -3.726562 4.8125 -3.203125 5.4375 -2.828125 C 6.070312 -2.460938 6.796875 -2.28125 7.609375 -2.28125 Z M 7.609375 -2.28125 "/></g></g></g><g fill="#db3964" fill-opacity="1"><g transform="translate(240.738086, 775.968434)"><g><path d="M 6.046875 -13.5 C 7.472656 -13.5 8.722656 -13.222656 9.796875 -12.671875 C 10.867188 -12.117188 11.695312 -11.328125 12.28125 -10.296875 C 12.875 -9.273438 13.171875 -8.085938 13.171875 -6.734375 C 13.171875 -5.378906 12.875 -4.191406 12.28125 -3.171875 C 11.695312 -2.160156 10.867188 -1.378906 9.796875 -0.828125 C 8.722656 -0.273438 7.472656 0 6.046875 0 L 1.328125 0 L 1.328125 -13.5 Z M 5.953125 -2.296875 C 7.367188 -2.296875 8.460938 -2.679688 9.234375 -3.453125 C 10.015625 -4.234375 10.40625 -5.328125 10.40625 -6.734375 C 10.40625 -8.140625 10.015625 -9.238281 9.234375 -10.03125 C 8.460938 -10.820312 7.367188 -11.21875 5.953125 -11.21875 L 4.046875 -11.21875 L 4.046875 -2.296875 Z M 5.953125 -2.296875 "/></g></g></g><g fill="#db3964" fill-opacity="1"><g transform="translate(257.94405, 775.968434)"><g><path d="M 7.609375 0.140625 C 6.335938 0.140625 5.171875 -0.15625 4.109375 -0.75 C 3.054688 -1.34375 2.21875 -2.164062 1.59375 -3.21875 C 0.976562 -4.269531 0.671875 -5.460938 0.671875 -6.796875 C 0.671875 -8.109375 0.976562 -9.289062 1.59375 -10.34375 C 2.21875 -11.394531 3.054688 -12.21875 4.109375 -12.8125 C 5.171875 -13.40625 6.335938 -13.703125 7.609375 -13.703125 C 8.878906 -13.703125 10.039062 -13.40625 11.09375 -12.8125 C 12.144531 -12.21875 12.976562 -11.394531 13.59375 -10.34375 C 14.207031 -9.289062 14.515625 -8.109375 14.515625 -6.796875 C 14.515625 -5.460938 14.207031 -4.269531 13.59375 -3.21875 C 12.976562 -2.164062 12.140625 -1.34375 11.078125 -0.75 C 10.023438 -0.15625 8.867188 0.140625 7.609375 0.140625 Z M 7.609375 -2.28125 C 8.421875 -2.28125 9.132812 -2.460938 9.75 -2.828125 C 10.363281 -3.203125 10.84375 -3.726562 11.1875 -4.40625 C 11.539062 -5.09375 11.71875 -5.890625 11.71875 -6.796875 C 11.71875 -7.691406 11.539062 -8.476562 11.1875 -9.15625 C 10.84375 -9.832031 10.363281 -10.351562 9.75 -10.71875 C 9.132812 -11.082031 8.421875 -11.265625 7.609375 -11.265625 C 6.796875 -11.265625 6.070312 -11.082031 5.4375 -10.71875 C 4.8125 -10.351562 4.328125 -9.832031 3.984375 -9.15625 C 3.640625 -8.476562 3.46875 -7.691406 3.46875 -6.796875 C 3.46875 -5.890625 3.640625 -5.09375 3.984375 -4.40625 C 4.328125 -3.726562 4.8125 -3.203125 5.4375 -2.828125 C 6.070312 -2.460938 6.796875 -2.28125 7.609375 -2.28125 Z M 7.609375 -2.28125 "/></g></g></g><g fill="#db3964" fill-opacity="1"><g transform="translate(276.464491, 775.968434)"><g/></g></g><g fill="#db3964" fill-opacity="1"><g transform="translate(284.411172, 775.968434)"><g><path d="M 11.1875 -9.328125 C 11.1875 -8.597656 11.015625 -7.914062 10.671875 -7.28125 C 10.328125 -6.65625 9.789062 -6.148438 9.0625 -5.765625 C 8.332031 -5.378906 7.414062 -5.1875 6.3125 -5.1875 L 4.046875 -5.1875 L 4.046875 0 L 1.328125 0 L 1.328125 -13.5 L 6.3125 -13.5 C 7.351562 -13.5 8.238281 -13.316406 8.96875 -12.953125 C 9.707031 -12.597656 10.257812 -12.101562 10.625 -11.46875 C 11 -10.832031 11.1875 -10.117188 11.1875 -9.328125 Z M 6.1875 -7.375 C 6.9375 -7.375 7.488281 -7.539062 7.84375 -7.875 C 8.207031 -8.21875 8.390625 -8.703125 8.390625 -9.328125 C 8.390625 -10.640625 7.65625 -11.296875 6.1875 -11.296875 L 4.046875 -11.296875 L 4.046875 -7.375 Z M 6.1875 -7.375 "/></g></g></g><g fill="#db3964" fill-opacity="1"><g transform="translate(299.51013, 775.968434)"><g><path d="M 4 -13.5 L 4 -5.140625 C 4 -4.222656 4.238281 -3.523438 4.71875 -3.046875 C 5.195312 -2.566406 5.867188 -2.328125 6.734375 -2.328125 C 7.609375 -2.328125 8.285156 -2.566406 8.765625 -3.046875 C 9.242188 -3.523438 9.484375 -4.222656 9.484375 -5.140625 L 9.484375 -13.5 L 12.203125 -13.5 L 12.203125 -5.171875 C 12.203125 -4.015625 11.953125 -3.039062 11.453125 -2.25 C 10.960938 -1.457031 10.300781 -0.859375 9.46875 -0.453125 C 8.632812 -0.0546875 7.707031 0.140625 6.6875 0.140625 C 5.6875 0.140625 4.773438 -0.0546875 3.953125 -0.453125 C 3.140625 -0.859375 2.492188 -1.457031 2.015625 -2.25 C 1.535156 -3.039062 1.296875 -4.015625 1.296875 -5.171875 L 1.296875 -13.5 Z M 4 -13.5 "/></g></g></g><g fill="#db3964" fill-opacity="1"><g transform="translate(316.329503, 775.968434)"><g><path d="M 9 -6.921875 C 9.757812 -6.785156 10.382812 -6.40625 10.875 -5.78125 C 11.363281 -5.164062 11.609375 -4.457031 11.609375 -3.65625 C 11.609375 -2.9375 11.429688 -2.300781 11.078125 -1.75 C 10.722656 -1.195312 10.207031 -0.765625 9.53125 -0.453125 C 8.863281 -0.148438 8.070312 0 7.15625 0 L 1.328125 0 L 1.328125 -13.5 L 6.90625 -13.5 C 7.820312 -13.5 8.609375 -13.347656 9.265625 -13.046875 C 9.929688 -12.753906 10.4375 -12.34375 10.78125 -11.8125 C 11.125 -11.289062 11.296875 -10.691406 11.296875 -10.015625 C 11.296875 -9.234375 11.085938 -8.578125 10.671875 -8.046875 C 10.253906 -7.515625 9.695312 -7.140625 9 -6.921875 Z M 4.046875 -7.9375 L 6.515625 -7.9375 C 7.160156 -7.9375 7.65625 -8.078125 8 -8.359375 C 8.351562 -8.648438 8.53125 -9.066406 8.53125 -9.609375 C 8.53125 -10.148438 8.351562 -10.566406 8 -10.859375 C 7.65625 -11.160156 7.160156 -11.3125 6.515625 -11.3125 L 4.046875 -11.3125 Z M 6.765625 -2.203125 C 7.421875 -2.203125 7.929688 -2.359375 8.296875 -2.671875 C 8.671875 -2.984375 8.859375 -3.421875 8.859375 -3.984375 C 8.859375 -4.566406 8.664062 -5.019531 8.28125 -5.34375 C 7.894531 -5.675781 7.375 -5.84375 6.71875 -5.84375 L 4.046875 -5.84375 L 4.046875 -2.203125 Z M 6.765625 -2.203125 "/></g></g></g><g fill="#db3964" fill-opacity="1"><g transform="translate(332.105028, 775.968434)"><g><path d="M 4.046875 -2.140625 L 8.484375 -2.140625 L 8.484375 0 L 1.328125 0 L 1.328125 -13.5 L 4.046875 -13.5 Z M 4.046875 -2.140625 "/></g></g></g><g fill="#db3964" fill-opacity="1"><g transform="translate(344.323738, 775.968434)"><g><path d="M 4.046875 -13.5 L 4.046875 0 L 1.328125 0 L 1.328125 -13.5 Z M 4.046875 -13.5 "/></g></g></g><g fill="#db3964" fill-opacity="1"><g transform="translate(353.043649, 775.968434)"><g><path d="M 0.671875 -6.765625 C 0.671875 -8.097656 0.96875 -9.289062 1.5625 -10.34375 C 2.164062 -11.394531 2.988281 -12.210938 4.03125 -12.796875 C 5.070312 -13.378906 6.238281 -13.671875 7.53125 -13.671875 C 9.03125 -13.671875 10.347656 -13.285156 11.484375 -12.515625 C 12.617188 -11.742188 13.414062 -10.671875 13.875 -9.296875 L 10.75 -9.296875 C 10.445312 -9.941406 10.015625 -10.425781 9.453125 -10.75 C 8.890625 -11.070312 8.238281 -11.234375 7.5 -11.234375 C 6.71875 -11.234375 6.019531 -11.050781 5.40625 -10.6875 C 4.789062 -10.320312 4.3125 -9.800781 3.96875 -9.125 C 3.632812 -8.457031 3.46875 -7.671875 3.46875 -6.765625 C 3.46875 -5.878906 3.632812 -5.097656 3.96875 -4.421875 C 4.3125 -3.742188 4.789062 -3.21875 5.40625 -2.84375 C 6.019531 -2.476562 6.71875 -2.296875 7.5 -2.296875 C 8.238281 -2.296875 8.890625 -2.457031 9.453125 -2.78125 C 10.015625 -3.113281 10.445312 -3.601562 10.75 -4.25 L 13.875 -4.25 C 13.414062 -2.875 12.625 -1.800781 11.5 -1.03125 C 10.375 -0.269531 9.050781 0.109375 7.53125 0.109375 C 6.238281 0.109375 5.070312 -0.179688 4.03125 -0.765625 C 2.988281 -1.347656 2.164062 -2.160156 1.5625 -3.203125 C 0.96875 -4.253906 0.671875 -5.441406 0.671875 -6.765625 Z M 0.671875 -6.765625 "/></g></g></g><g fill="#db3964" fill-opacity="1"><g transform="translate(371.235479, 775.968434)"><g><path d="M 9.609375 -2.578125 L 4.234375 -2.578125 L 3.34375 0 L 0.5 0 L 5.359375 -13.515625 L 8.515625 -13.515625 L 13.359375 0 L 10.5 0 Z M 8.875 -4.734375 L 6.921875 -10.390625 L 4.96875 -4.734375 Z M 8.875 -4.734375 "/></g></g></g><g fill="#db3964" fill-opacity="1"><g transform="translate(388.422131, 775.968434)"><g><path d="M 10.515625 -13.5 L 10.515625 -11.3125 L 6.921875 -11.3125 L 6.921875 0 L 4.21875 0 L 4.21875 -11.3125 L 0.625 -11.3125 L 0.625 -13.5 Z M 10.515625 -13.5 "/></g></g></g><g fill="#db3964" fill-opacity="1"><g transform="translate(402.921838, 775.968434)"><g><path d="M 4.046875 -13.5 L 4.046875 0 L 1.328125 0 L 1.328125 -13.5 Z M 4.046875 -13.5 "/></g></g></g><g fill="#db3964" fill-opacity="1"><g transform="translate(411.641749, 775.968434)"><g><path d="M 7.609375 0.140625 C 6.335938 0.140625 5.171875 -0.15625 4.109375 -0.75 C 3.054688 -1.34375 2.21875 -2.164062 1.59375 -3.21875 C 0.976562 -4.269531 0.671875 -5.460938 0.671875 -6.796875 C 0.671875 -8.109375 0.976562 -9.289062 1.59375 -10.34375 C 2.21875 -11.394531 3.054688 -12.21875 4.109375 -12.8125 C 5.171875 -13.40625 6.335938 -13.703125 7.609375 -13.703125 C 8.878906 -13.703125 10.039062 -13.40625 11.09375 -12.8125 C 12.144531 -12.21875 12.976562 -11.394531 13.59375 -10.34375 C 14.207031 -9.289062 14.515625 -8.109375 14.515625 -6.796875 C 14.515625 -5.460938 14.207031 -4.269531 13.59375 -3.21875 C 12.976562 -2.164062 12.140625 -1.34375 11.078125 -0.75 C 10.023438 -0.15625 8.867188 0.140625 7.609375 0.140625 Z M 7.609375 -2.28125 C 8.421875 -2.28125 9.132812 -2.460938 9.75 -2.828125 C 10.363281 -3.203125 10.84375 -3.726562 11.1875 -4.40625 C 11.539062 -5.09375 11.71875 -5.890625 11.71875 -6.796875 C 11.71875 -7.691406 11.539062 -8.476562 11.1875 -9.15625 C 10.84375 -9.832031 10.363281 -10.351562 9.75 -10.71875 C 9.132812 -11.082031 8.421875 -11.265625 7.609375 -11.265625 C 6.796875 -11.265625 6.070312 -11.082031 5.4375 -10.71875 C 4.8125 -10.351562 4.328125 -9.832031 3.984375 -9.15625 C 3.640625 -8.476562 3.46875 -7.691406 3.46875 -6.796875 C 3.46875 -5.890625 3.640625 -5.09375 3.984375 -4.40625 C 4.328125 -3.726562 4.8125 -3.203125 5.4375 -2.828125 C 6.070312 -2.460938 6.796875 -2.28125 7.609375 -2.28125 Z M 7.609375 -2.28125 "/></g></g></g><g fill="#db3964" fill-opacity="1"><g transform="translate(430.16219, 775.968434)"><g><path d="M 12.890625 0 L 10.171875 0 L 4.046875 -9.265625 L 4.046875 0 L 1.328125 0 L 1.328125 -13.515625 L 4.046875 -13.515625 L 10.171875 -4.234375 L 10.171875 -13.515625 L 12.890625 -13.515625 Z M 12.890625 0 "/></g></g></g><g fill="#db3964" fill-opacity="1"><g transform="translate(447.7161, 775.968434)"><g><path d="M 6 0.140625 C 5.050781 0.140625 4.203125 -0.0195312 3.453125 -0.34375 C 2.703125 -0.664062 2.101562 -1.128906 1.65625 -1.734375 C 1.21875 -2.347656 0.992188 -3.066406 0.984375 -3.890625 L 3.890625 -3.890625 C 3.929688 -3.335938 4.128906 -2.898438 4.484375 -2.578125 C 4.835938 -2.253906 5.320312 -2.09375 5.9375 -2.09375 C 6.570312 -2.09375 7.066406 -2.242188 7.421875 -2.546875 C 7.785156 -2.847656 7.96875 -3.242188 7.96875 -3.734375 C 7.96875 -4.128906 7.84375 -4.457031 7.59375 -4.71875 C 7.351562 -4.976562 7.046875 -5.179688 6.671875 -5.328125 C 6.304688 -5.472656 5.804688 -5.640625 5.171875 -5.828125 C 4.285156 -6.078125 3.566406 -6.328125 3.015625 -6.578125 C 2.472656 -6.835938 2.003906 -7.21875 1.609375 -7.71875 C 1.222656 -8.226562 1.03125 -8.910156 1.03125 -9.765625 C 1.03125 -10.566406 1.226562 -11.265625 1.625 -11.859375 C 2.019531 -12.453125 2.578125 -12.90625 3.296875 -13.21875 C 4.023438 -13.539062 4.851562 -13.703125 5.78125 -13.703125 C 7.175781 -13.703125 8.304688 -13.363281 9.171875 -12.6875 C 10.046875 -12.007812 10.53125 -11.0625 10.625 -9.84375 L 7.640625 -9.84375 C 7.617188 -10.3125 7.421875 -10.695312 7.046875 -11 C 6.679688 -11.300781 6.195312 -11.453125 5.59375 -11.453125 C 5.0625 -11.453125 4.632812 -11.316406 4.3125 -11.046875 C 4 -10.773438 3.84375 -10.378906 3.84375 -9.859375 C 3.84375 -9.503906 3.960938 -9.207031 4.203125 -8.96875 C 4.441406 -8.726562 4.738281 -8.53125 5.09375 -8.375 C 5.445312 -8.226562 5.945312 -8.0625 6.59375 -7.875 C 7.46875 -7.613281 8.179688 -7.351562 8.734375 -7.09375 C 9.296875 -6.84375 9.773438 -6.457031 10.171875 -5.9375 C 10.578125 -5.425781 10.78125 -4.75 10.78125 -3.90625 C 10.78125 -3.1875 10.59375 -2.515625 10.21875 -1.890625 C 9.84375 -1.273438 9.289062 -0.78125 8.5625 -0.40625 C 7.84375 -0.0390625 6.988281 0.140625 6 0.140625 Z M 6 0.140625 "/></g></g></g></svg>