<svg xmlns="http://www.w3.org/2000/svg" xmlns:xlink="http://www.w3.org/1999/xlink" width="1410" zoomAndPan="magnify" viewBox="0 0 1057.5 1687.499993" height="2250" preserveAspectRatio="xMidYMid meet" version="1.0"><defs><g/><clipPath id="48520c1153"><path d="M 0 0.148438 L 1057 0.148438 L 1057 1686.851562 L 0 1686.851562 Z M 0 0.148438 " clip-rule="nonzero"/></clipPath><clipPath id="8e3653765b"><path d="M 528.5 92.546875 L 830.542969 92.546875 L 830.542969 394.585938 L 528.5 394.585938 Z M 528.5 92.546875 " clip-rule="nonzero"/></clipPath><clipPath id="f22808038e"><path d="M 679.519531 92.546875 C 596.113281 92.546875 528.5 160.160156 528.5 243.566406 C 528.5 326.972656 596.113281 394.585938 679.519531 394.585938 C 762.925781 394.585938 830.542969 326.972656 830.542969 243.566406 C 830.542969 160.160156 762.925781 92.546875 679.519531 92.546875 Z M 679.519531 92.546875 " clip-rule="nonzero"/></clipPath><clipPath id="423bff2f74"><path d="M 0 148 L 814 148 L 814 1064.242188 L 0 1064.242188 Z M 0 148 " clip-rule="nonzero"/></clipPath><clipPath id="84c39d484e"><path d="M 0 148 L 814 148 L 814 1064.242188 L 0 1064.242188 Z M 0 148 " clip-rule="nonzero"/></clipPath><clipPath id="09958683a8"><path d="M 780 938 L 1057 938 L 1057 1064.242188 L 780 1064.242188 Z M 780 938 " clip-rule="nonzero"/></clipPath><clipPath id="8cc930f9d2"><path d="M 0 1050.847656 L 1057 1050.847656 L 1057 1686.851562 L 0 1686.851562 Z M 0 1050.847656 " clip-rule="nonzero"/></clipPath></defs><g clip-path="url(#48520c1153)"><path fill="#ffffff" d="M 0 0.148438 L 1057 0.148438 L 1057 1686.851562 L 0 1686.851562 Z M 0 0.148438 " fill-opacity="1" fill-rule="nonzero"/><path fill="#d44d4d" d="M 0 0.148438 L 1057 0.148438 L 1057 1686.851562 L 0 1686.851562 Z M 0 0.148438 " fill-opacity="1" fill-rule="nonzero"/></g><g clip-path="url(#8e3653765b)"><g clip-path="url(#f22808038e)"><path fill="#ffffff" d="M 528.5 92.546875 L 830.542969 92.546875 L 830.542969 394.585938 L 528.5 394.585938 Z M 528.5 92.546875 " fill-opacity="1" fill-rule="nonzero"/></g></g><g clip-path="url(#423bff2f74)"><path fill="#000000" d="M 811.488281 1064.003906 C 811.625 1053.886719 811.769531 1043.769531 811.980469 1033.65625 C 812.265625 1019.949219 812.960938 1006.253906 813.472656 992.554688 L 813.472656 943.804688 C 808.019531 939.898438 803.03125 936.121094 797.839844 932.652344 C 781.089844 921.464844 764.417969 910.15625 747.410156 899.378906 C 739.109375 894.125 734.46875 887.816406 732.835938 877.609375 C 725.652344 832.753906 717.460938 788.0625 709.8125 743.277344 C 708.074219 733.101562 707.039062 722.804688 705.679688 712.5625 C 702.496094 709.890625 699.3125 707.214844 696.128906 704.542969 C 678.984375 698.699219 661.832031 692.875 644.722656 686.921875 C 643.882812 686.632812 643.445312 685.203125 642.160156 683.351562 C 645.082031 682.554688 647.636719 681.863281 650.1875 681.171875 C 651.183594 678.941406 652.183594 676.707031 653.183594 674.476562 C 652.644531 673.257812 652.105469 672.039062 651.566406 670.816406 L 651.21875 670.398438 C 650.003906 669.464844 648.789062 668.53125 647.574219 667.601562 L 647.597656 667.34375 C 645.160156 667.398438 642.726562 667.449219 640.292969 667.5 C 635.929688 669.890625 631.613281 670.484375 627.410156 667.136719 L 627.027344 666.976562 C 625.949219 665.953125 624.867188 664.929688 623.789062 663.902344 C 621.722656 661.980469 619.660156 660.054688 617.597656 658.132812 C 617.589844 647.230469 617.363281 636.324219 617.664062 625.4375 C 617.902344 616.816406 618.566406 608.195312 619.46875 599.621094 C 619.9375 595.15625 620.5 590.371094 622.464844 586.457031 C 628.519531 574.40625 627.949219 561.609375 625.613281 549.363281 C 624.214844 542.015625 625.0625 535.898438 627.195312 529.359375 C 628.265625 524.734375 629.332031 520.109375 630.402344 515.484375 C 630.0625 514.308594 630.230469 513.203125 630.894531 512.175781 C 633.421875 494.570312 636.277344 477.003906 638.347656 459.351562 C 639.480469 449.679688 640.253906 439.773438 639.46875 430.113281 C 638.171875 414.148438 639.347656 398.136719 637.382812 382.167969 C 636.203125 372.589844 637.488281 362.707031 637.664062 352.960938 C 637.261719 351.832031 637.363281 350.753906 637.972656 349.722656 C 638.171875 343.925781 638.375 338.128906 638.574219 332.332031 C 637.144531 320.757812 634.429688 309.199219 638.078125 297.550781 C 638.863281 296.667969 639.648438 295.78125 640.433594 294.894531 C 641.699219 294.808594 642.964844 294.722656 644.234375 294.636719 C 651.464844 294.699219 658.714844 294.5 665.925781 294.933594 C 669.105469 295.125 672.210938 296.597656 675.351562 297.492188 C 676.5625 297.816406 677.773438 298.144531 678.984375 298.472656 C 683.289062 297.53125 687.554688 296.3125 691.90625 295.71875 C 699 294.75 706.195312 293.71875 712.835938 297.777344 C 714.207031 298.023438 715.582031 298.265625 716.957031 298.511719 C 721.492188 299.351562 726.03125 300.195312 730.574219 301.039062 C 732.929688 301.339844 735.28125 301.636719 737.636719 301.9375 C 739.113281 300.714844 741.300781 299.78125 741.925781 298.21875 C 743.410156 294.511719 746.042969 296.214844 748.367188 296.195312 C 749.121094 295.183594 749.878906 294.164062 750.632812 293.144531 C 741.035156 281.453125 741.035156 281.453125 731.214844 277.804688 C 731.015625 275.105469 730.8125 272.386719 730.609375 269.664062 C 728.167969 270.742188 725.726562 271.816406 723.285156 272.894531 C 720.257812 276.183594 717.238281 279.476562 714.089844 282.898438 C 705.359375 281.089844 696.570312 282.460938 689.238281 276.996094 L 688.945312 276.839844 C 683.089844 274.695312 676.738281 273.390625 671.472656 270.257812 C 653.289062 259.445312 633.617188 252.019531 614.164062 244.09375 C 607.089844 241.210938 600.765625 237.8125 597.765625 229.640625 C 598.367188 223.664062 600.832031 218.140625 605.554688 213.65625 C 606.984375 211.917969 608.152344 209.839844 609.898438 208.515625 C 613.753906 205.59375 613.691406 201.90625 612.726562 197.851562 C 607.710938 193.777344 611.949219 188.328125 610.621094 183.703125 C 602.179688 179.515625 596.277344 173.292969 595.5 163.515625 C 594.945312 156.460938 590.164062 155.945312 584.875 155.78125 C 582.683594 156.765625 580.488281 157.75 578.300781 158.738281 L 577.503906 159.058594 C 575.457031 160.019531 573.410156 160.976562 571.359375 161.9375 C 568.769531 163.273438 566.179688 164.609375 563.589844 165.949219 C 561.546875 166.910156 559.5 167.871094 557.453125 168.835938 L 556.742188 169.746094 C 555.808594 171.941406 554.875 174.140625 553.945312 176.339844 C 550.558594 184.828125 548.753906 193.207031 553.683594 201.921875 C 555.917969 205.867188 557.792969 209.320312 562.636719 210.9375 C 565.5 211.890625 565.34375 215.367188 563.496094 218.035156 C 562.875 219.921875 562.257812 221.804688 561.636719 223.6875 C 556.390625 225.835938 551.390625 226.109375 547.011719 221.738281 C 543.664062 220.414062 540.316406 219.09375 536.96875 217.773438 C 533.644531 216.699219 530.320312 215.628906 526.992188 214.554688 C 523.40625 213.242188 519.820312 211.925781 516.234375 210.613281 C 513.851562 209.738281 511.46875 208.867188 509.085938 207.996094 C 507.953125 207.984375 506.882812 207.722656 505.871094 207.214844 C 503.429688 206.359375 500.988281 205.496094 498.550781 204.640625 C 490.621094 202.066406 482.695312 199.488281 474.769531 196.914062 C 472.40625 195.980469 470.042969 195.046875 467.679688 194.117188 C 466.554688 194.128906 465.460938 193.945312 464.398438 193.570312 C 461.945312 192.652344 459.492188 191.734375 457.042969 190.816406 C 452.21875 186.027344 445.6875 188.792969 440.1875 186.996094 C 436.851562 185.816406 433.511719 184.632812 430.175781 183.453125 C 426.601562 182.25 423.027344 181.046875 419.453125 179.839844 C 416.035156 178.78125 412.621094 177.726562 409.207031 176.671875 L 408.992188 176.613281 C 405.511719 175.527344 402.03125 174.4375 398.546875 173.351562 C 387.34375 168.523438 383.777344 157.46875 378.054688 148.175781 C 376.039062 150.957031 374.019531 153.730469 371.378906 157.363281 C 368.675781 154.648438 366.125 152.085938 363.574219 149.523438 C 360.785156 148.800781 357.636719 147.417969 358.070312 152.550781 C 358.675781 153.4375 360.007812 154.667969 359.773438 155.167969 C 357.355469 160.355469 355.808594 165.632812 355.503906 171.445312 C 355.410156 173.15625 352.546875 174.71875 350.953125 176.351562 C 367.867188 177.46875 383.398438 182.339844 397.550781 192.007812 C 406.996094 198.460938 417.160156 203.84375 426.9375 209.8125 C 433.769531 213.980469 440.488281 218.324219 447.257812 222.585938 C 449.351562 222.757812 451.445312 222.929688 453.539062 223.097656 C 473.082031 228.242188 490.332031 238.429688 507.679688 248.238281 C 511.265625 250.265625 514.253906 254.648438 515.859375 258.617188 C 519.707031 268.121094 522.980469 277.910156 525.738281 287.789062 C 530.878906 306.21875 526.144531 322.785156 514.78125 337.667969 C 513.511719 339.332031 511.03125 340.070312 509.109375 341.238281 C 506.511719 342.441406 504.011719 344 501.292969 344.777344 C 491.707031 347.527344 485.902344 353.992188 481.605469 362.71875 C 475.007812 376.097656 474.746094 375.96875 462.671875 383.6875 C 463.152344 387.480469 466.121094 388.011719 468.945312 387.875 C 472.34375 387.710938 475.789062 387.136719 479.074219 386.222656 C 496.933594 381.265625 515.328125 380.347656 533.644531 378.882812 C 536.40625 378.660156 539.230469 379.21875 541.421875 379.375 C 545.320312 384.457031 543.175781 388.929688 542.421875 393.28125 C 538.390625 416.476562 534.195312 439.644531 530.230469 462.851562 C 527.433594 479.253906 524.917969 495.703125 522.277344 512.132812 C 522.355469 518.308594 523.78125 524.84375 515.207031 527.390625 C 513.035156 528.035156 511.316406 531.304688 510.089844 533.722656 C 508.546875 536.75 507.722656 540.140625 506.585938 543.375 C 506.222656 545.484375 505.859375 547.59375 505.496094 549.703125 C 504.28125 555.90625 503.039062 562.105469 501.847656 568.316406 C 500.480469 575.453125 496.261719 582.738281 502.855469 589.503906 C 502.265625 595.171875 502.097656 600.917969 501.007812 606.488281 C 497.816406 622.863281 494.203125 639.15625 490.863281 655.507812 C 489.484375 662.25 488.394531 669.050781 486.988281 676.824219 C 484.191406 677.414062 480.992188 678.5625 477.753906 678.679688 C 470.277344 678.949219 462.71875 679.339844 455.3125 678.558594 C 443.253906 677.292969 434.191406 681.722656 426.566406 690.71875 C 422.488281 695.53125 417.578125 699.636719 413.167969 704.183594 C 404.136719 713.492188 393.359375 719.769531 380.84375 723.09375 C 373.09375 726.585938 365.34375 730.082031 357.59375 733.578125 C 357.59375 733.578125 357.246094 733.664062 357.246094 733.664062 C 348.6875 737.851562 340.222656 742.265625 331.523438 746.140625 C 326.453125 748.398438 323.453125 751.636719 322.097656 757.113281 C 320.066406 765.320312 317.359375 773.355469 314.941406 781.46875 C 314.15625 783.921875 313.367188 786.378906 312.578125 788.835938 C 309.179688 803.335938 305.78125 817.835938 302.304688 832.671875 C 297.246094 834.464844 293.082031 836.246094 288.753906 837.425781 C 255.433594 846.480469 222.175781 855.792969 188.6875 864.195312 C 176.859375 867.167969 168.054688 872.554688 160.964844 882.671875 C 143.777344 907.191406 125.378906 930.859375 108.167969 955.359375 C 100.21875 966.671875 90.570312 974.546875 77.5625 979.304688 C 62.441406 984.832031 48.007812 992.28125 32.820312 997.585938 C 20.289062 1001.964844 12.71875 1009.902344 8.316406 1022.054688 C 4.992188 1031.242188 0.90625 1040.175781 -3.191406 1049.058594 C -5.550781 1054.183594 -8.09375 1059.21875 -11.34375 1064.011719 L 811.488281 1064.011719 Z M 527.136719 655.5625 C 530.292969 643.335938 533.96875 631.238281 537.519531 619.113281 C 544.300781 595.964844 550.765625 572.71875 558.0625 549.734375 C 566.742188 522.375 576.140625 495.238281 585.289062 468.027344 C 585.808594 466.476562 586.863281 465.105469 587.675781 463.632812 C 588.800781 464.265625 590.378906 464.726562 590.390625 465.222656 C 590.683594 477.351562 581.546875 664 578.214844 678.820312 L 556.21875 678.820312 C 554.40625 676.472656 552.039062 673.402344 548.820312 669.238281 C 545.199219 669.238281 540.6875 669.773438 536.355469 669.117188 C 528.800781 667.980469 525.253906 662.867188 527.136719 655.5625 Z M 527.136719 655.5625 " fill-opacity="1" fill-rule="nonzero"/></g><path fill="#000000" d="M 547.011719 221.730469 C 550.496094 221.742188 553.980469 221.753906 557.464844 221.765625 C 558.859375 222.402344 560.25 223.039062 561.640625 223.679688 C 556.390625 225.828125 551.390625 226.097656 547.011719 221.730469 Z M 547.011719 221.730469 " fill-opacity="1" fill-rule="nonzero"/><g clip-path="url(#84c39d484e)"><path fill="#000000" d="M 811.488281 1064.003906 C 811.625 1053.886719 811.769531 1043.769531 811.980469 1033.65625 C 812.265625 1019.949219 812.960938 1006.253906 813.472656 992.554688 L 813.472656 943.804688 C 808.019531 939.898438 803.03125 936.121094 797.839844 932.652344 C 781.089844 921.464844 764.417969 910.15625 747.410156 899.378906 C 739.109375 894.125 734.46875 887.816406 732.835938 877.609375 C 725.652344 832.753906 717.460938 788.0625 709.8125 743.277344 C 708.074219 733.101562 707.039062 722.804688 705.679688 712.5625 C 702.496094 709.890625 699.3125 707.214844 696.128906 704.542969 C 678.984375 698.699219 661.832031 692.875 644.722656 686.921875 C 643.882812 686.632812 643.445312 685.203125 642.160156 683.351562 C 645.082031 682.554688 647.636719 681.863281 650.1875 681.171875 C 651.183594 678.941406 652.183594 676.707031 653.183594 674.476562 C 652.644531 673.257812 652.105469 672.039062 651.566406 670.816406 L 651.21875 670.398438 C 650.003906 669.464844 648.789062 668.53125 647.574219 667.601562 L 647.597656 667.34375 C 645.160156 667.398438 642.726562 667.449219 640.292969 667.5 C 635.929688 669.890625 631.613281 670.484375 627.410156 667.136719 L 627.027344 666.976562 C 625.949219 665.953125 624.867188 664.929688 623.789062 663.902344 C 621.722656 661.980469 619.660156 660.054688 617.597656 658.132812 C 617.589844 647.230469 617.363281 636.324219 617.664062 625.4375 C 617.902344 616.816406 618.566406 608.195312 619.46875 599.621094 C 619.9375 595.15625 620.5 590.371094 622.464844 586.457031 C 628.519531 574.40625 627.949219 561.609375 625.613281 549.363281 C 624.214844 542.015625 625.0625 535.898438 627.195312 529.359375 C 628.265625 524.734375 629.332031 520.109375 630.402344 515.484375 C 630.0625 514.308594 630.230469 513.203125 630.894531 512.175781 C 633.421875 494.570312 636.277344 477.003906 638.347656 459.351562 C 639.480469 449.679688 640.253906 439.773438 639.46875 430.113281 C 638.171875 414.148438 639.347656 398.136719 637.382812 382.167969 C 636.203125 372.589844 637.488281 362.707031 637.664062 352.960938 C 637.261719 351.832031 637.363281 350.753906 637.972656 349.722656 C 638.171875 343.925781 638.375 338.128906 638.574219 332.332031 C 637.144531 320.757812 634.429688 309.199219 638.078125 297.550781 C 638.863281 296.667969 639.648438 295.78125 640.433594 294.894531 C 641.699219 294.808594 642.964844 294.722656 644.234375 294.636719 C 651.464844 294.699219 658.714844 294.5 665.925781 294.933594 C 669.105469 295.125 672.210938 296.597656 675.351562 297.492188 C 676.5625 297.816406 677.773438 298.144531 678.984375 298.472656 C 683.289062 297.53125 687.554688 296.3125 691.90625 295.71875 C 699 294.75 706.195312 293.71875 712.835938 297.777344 C 714.207031 298.023438 715.582031 298.265625 716.957031 298.511719 C 721.492188 299.351562 726.03125 300.195312 730.574219 301.039062 C 732.929688 301.339844 735.28125 301.636719 737.636719 301.9375 C 739.113281 300.714844 741.300781 299.78125 741.925781 298.21875 C 743.410156 294.511719 746.042969 296.214844 748.367188 296.195312 C 749.121094 295.183594 749.878906 294.164062 750.632812 293.144531 C 741.035156 281.453125 741.035156 281.453125 731.214844 277.804688 C 731.015625 275.105469 730.8125 272.386719 730.609375 269.664062 C 728.167969 270.742188 725.726562 271.816406 723.285156 272.894531 C 720.257812 276.183594 717.238281 279.476562 714.089844 282.898438 C 705.359375 281.089844 696.570312 282.460938 689.238281 276.996094 L 688.945312 276.839844 C 683.089844 274.695312 676.738281 273.390625 671.472656 270.257812 C 653.289062 259.445312 633.617188 252.019531 614.164062 244.09375 C 607.089844 241.210938 600.765625 237.8125 597.765625 229.640625 C 598.367188 223.664062 600.832031 218.140625 605.554688 213.65625 C 606.984375 211.917969 608.152344 209.839844 609.898438 208.515625 C 613.753906 205.59375 613.691406 201.90625 612.726562 197.851562 C 607.710938 193.777344 611.949219 188.328125 610.621094 183.703125 C 602.179688 179.515625 596.277344 173.292969 595.5 163.515625 C 594.945312 156.460938 590.164062 155.945312 584.875 155.78125 C 582.683594 156.765625 580.488281 157.75 578.300781 158.738281 L 577.503906 159.058594 C 575.457031 160.019531 573.410156 160.976562 571.359375 161.9375 C 568.769531 163.273438 566.179688 164.609375 563.589844 165.949219 C 561.546875 166.910156 559.5 167.871094 557.453125 168.835938 L 556.742188 169.746094 C 555.808594 171.941406 554.875 174.140625 553.945312 176.339844 C 550.558594 184.828125 548.753906 193.207031 553.683594 201.921875 C 555.917969 205.867188 557.792969 209.320312 562.636719 210.9375 C 565.5 211.890625 565.34375 215.367188 563.496094 218.035156 C 562.875 219.921875 562.257812 221.804688 561.636719 223.6875 C 556.390625 225.835938 551.390625 226.109375 547.011719 221.738281 C 543.664062 220.414062 540.316406 219.09375 536.96875 217.773438 C 533.644531 216.699219 530.320312 215.628906 526.992188 214.554688 C 523.40625 213.242188 519.820312 211.925781 516.234375 210.613281 C 513.851562 209.738281 511.46875 208.867188 509.085938 207.996094 C 507.953125 207.984375 506.882812 207.722656 505.871094 207.214844 C 503.429688 206.359375 500.988281 205.496094 498.550781 204.640625 C 490.621094 202.066406 482.695312 199.488281 474.769531 196.914062 C 472.40625 195.980469 470.042969 195.046875 467.679688 194.117188 C 466.554688 194.128906 465.460938 193.945312 464.398438 193.570312 C 461.945312 192.652344 459.492188 191.734375 457.042969 190.816406 C 452.21875 186.027344 445.6875 188.792969 440.1875 186.996094 C 436.851562 185.816406 433.511719 184.632812 430.175781 183.453125 C 426.601562 182.25 423.027344 181.046875 419.453125 179.839844 C 416.035156 178.78125 412.621094 177.726562 409.207031 176.671875 L 408.992188 176.613281 C 405.511719 175.527344 402.03125 174.4375 398.546875 173.351562 C 387.34375 168.523438 383.777344 157.46875 378.054688 148.175781 C 376.039062 150.957031 374.019531 153.730469 371.378906 157.363281 C 368.675781 154.648438 366.125 152.085938 363.574219 149.523438 C 360.785156 148.800781 357.636719 147.417969 358.070312 152.550781 C 358.675781 153.4375 360.007812 154.667969 359.773438 155.167969 C 357.355469 160.355469 355.808594 165.632812 355.503906 171.445312 C 355.410156 173.15625 352.546875 174.71875 350.953125 176.351562 C 367.867188 177.46875 383.398438 182.339844 397.550781 192.007812 C 406.996094 198.460938 417.160156 203.84375 426.9375 209.8125 C 433.769531 213.980469 440.488281 218.324219 447.257812 222.585938 C 449.351562 222.757812 451.445312 222.929688 453.539062 223.097656 C 473.082031 228.242188 490.332031 238.429688 507.679688 248.238281 C 511.265625 250.265625 514.253906 254.648438 515.859375 258.617188 C 519.707031 268.121094 522.980469 277.910156 525.738281 287.789062 C 530.878906 306.21875 526.144531 322.785156 514.78125 337.667969 C 513.511719 339.332031 511.03125 340.070312 509.109375 341.238281 C 506.511719 342.441406 504.011719 344 501.292969 344.777344 C 491.707031 347.527344 485.902344 353.992188 481.605469 362.71875 C 475.007812 376.097656 474.746094 375.96875 462.671875 383.6875 C 463.152344 387.480469 466.121094 388.011719 468.945312 387.875 C 472.34375 387.710938 475.789062 387.136719 479.074219 386.222656 C 496.933594 381.265625 515.328125 380.347656 533.644531 378.882812 C 536.40625 378.660156 539.230469 379.21875 541.421875 379.375 C 545.320312 384.457031 543.175781 388.929688 542.421875 393.28125 C 538.390625 416.476562 534.195312 439.644531 530.230469 462.851562 C 527.433594 479.253906 524.917969 495.703125 522.277344 512.132812 C 522.355469 518.308594 523.78125 524.84375 515.207031 527.390625 C 513.035156 528.035156 511.316406 531.304688 510.089844 533.722656 C 508.546875 536.75 507.722656 540.140625 506.585938 543.375 C 506.222656 545.484375 505.859375 547.59375 505.496094 549.703125 C 504.28125 555.90625 503.039062 562.105469 501.847656 568.316406 C 500.480469 575.453125 496.261719 582.738281 502.855469 589.503906 C 502.265625 595.171875 502.097656 600.917969 501.007812 606.488281 C 497.816406 622.863281 494.203125 639.15625 490.863281 655.507812 C 489.484375 662.25 488.394531 669.050781 486.988281 676.824219 C 484.191406 677.414062 480.992188 678.5625 477.753906 678.679688 C 470.277344 678.949219 462.71875 679.339844 455.3125 678.558594 C 443.253906 677.292969 434.191406 681.722656 426.566406 690.71875 C 422.488281 695.53125 417.578125 699.636719 413.167969 704.183594 C 404.136719 713.492188 393.359375 719.769531 380.84375 723.09375 C 373.09375 726.585938 365.34375 730.082031 357.59375 733.578125 C 357.59375 733.578125 357.246094 733.664062 357.246094 733.664062 C 348.6875 737.851562 340.222656 742.265625 331.523438 746.140625 C 326.453125 748.398438 323.453125 751.636719 322.097656 757.113281 C 320.066406 765.320312 317.359375 773.355469 314.941406 781.46875 C 314.15625 783.921875 313.367188 786.378906 312.578125 788.835938 C 309.179688 803.335938 305.78125 817.835938 302.304688 832.671875 C 297.246094 834.464844 293.082031 836.246094 288.753906 837.425781 C 255.433594 846.480469 222.175781 855.792969 188.6875 864.195312 C 176.859375 867.167969 168.054688 872.554688 160.964844 882.671875 C 143.777344 907.191406 125.378906 930.859375 108.167969 955.359375 C 100.21875 966.671875 90.570312 974.546875 77.5625 979.304688 C 62.441406 984.832031 48.007812 992.28125 32.820312 997.585938 C 20.289062 1001.964844 12.71875 1009.902344 8.316406 1022.054688 C 4.992188 1031.242188 0.90625 1040.175781 -3.191406 1049.058594 C -5.550781 1054.183594 -8.09375 1059.21875 -11.34375 1064.011719 L 811.488281 1064.011719 Z M 527.136719 655.5625 C 530.292969 643.335938 533.96875 631.238281 537.519531 619.113281 C 544.300781 595.964844 550.765625 572.71875 558.0625 549.734375 C 566.742188 522.375 576.140625 495.238281 585.289062 468.027344 C 585.808594 466.476562 586.863281 465.105469 587.675781 463.632812 C 588.800781 464.265625 590.378906 464.726562 590.390625 465.222656 C 590.683594 477.351562 581.546875 664 578.214844 678.820312 L 556.21875 678.820312 C 554.40625 676.472656 552.039062 673.402344 548.820312 669.238281 C 545.199219 669.238281 540.6875 669.773438 536.355469 669.117188 C 528.800781 667.980469 525.253906 662.867188 527.136719 655.5625 Z M 527.136719 655.5625 " fill-opacity="1" fill-rule="nonzero"/></g><path fill="#000000" d="M 547.011719 221.730469 C 550.496094 221.742188 553.980469 221.753906 557.464844 221.765625 C 558.859375 222.402344 560.25 223.039062 561.640625 223.679688 C 556.390625 225.828125 551.390625 226.097656 547.011719 221.730469 Z M 547.011719 221.730469 " fill-opacity="1" fill-rule="nonzero"/><g clip-path="url(#09958683a8)"><path fill="#000000" d="M 806.476562 938.730469 C 806.476562 938.730469 1068.679688 1019.507812 1058.382812 1064.003906 C 1026.460938 1064.222656 800.957031 1064.003906 800.957031 1064.003906 C 800.957031 1064.003906 780.363281 1001.414062 780.363281 997.292969 C 780.363281 993.175781 806.476562 938.730469 806.476562 938.730469 Z M 806.476562 938.730469 " fill-opacity="1" fill-rule="nonzero"/></g><g clip-path="url(#8cc930f9d2)"><path fill="#000000" d="M -11.457031 1050.847656 L 1068.914062 1050.847656 L 1068.914062 1698.566406 L -11.457031 1698.566406 Z M -11.457031 1050.847656 " fill-opacity="1" fill-rule="nonzero"/></g><g fill="#ffffff" fill-opacity="1"><g transform="translate(272.762395, 969.275619)"><g><path d="M 42.03125 0 L 32.65625 -57.515625 L 23.28125 0 L 14.015625 0 L 2.140625 -79.09375 L 11.1875 -79.09375 L 19.328125 -18.53125 L 29.265625 -79.09375 L 36.265625 -79.09375 L 45.875 -18.640625 L 54.125 -79.09375 L 63.171875 -79.09375 L 51.296875 0 Z M 42.03125 0 "/></g></g></g><g fill="#ffffff" fill-opacity="1"><g transform="translate(347.909596, 969.275619)"><g><path d="M 33.21875 0 L 33.21875 -35.828125 L 16.15625 -35.828125 L 16.15625 0 L 7.125 0 L 7.125 -79.09375 L 16.15625 -79.09375 L 16.15625 -43.046875 L 33.21875 -43.046875 L 33.21875 -79.09375 L 42.15625 -79.09375 L 42.15625 0 Z M 33.21875 0 "/></g></g></g><g fill="#ffffff" fill-opacity="1"><g transform="translate(407.010465, 969.275619)"><g><path d="M 40.90625 -55.484375 L 40.90625 -23.609375 C 40.90625 -14.046875 39.378906 -7.4375 36.328125 -3.78125 C 33.273438 -0.132812 28.90625 1.6875 23.21875 1.6875 C 17.53125 1.6875 13.160156 -0.132812 10.109375 -3.78125 C 7.054688 -7.4375 5.53125 -14.046875 5.53125 -23.609375 L 5.53125 -55.484375 C 5.53125 -65.046875 7.054688 -71.65625 10.109375 -75.3125 C 13.160156 -78.96875 17.53125 -80.796875 23.21875 -80.796875 C 28.90625 -80.796875 33.273438 -78.96875 36.328125 -75.3125 C 39.378906 -71.65625 40.90625 -65.046875 40.90625 -55.484375 Z M 31.984375 -21.921875 L 31.984375 -57.171875 C 31.984375 -68.023438 29.082031 -73.453125 23.28125 -73.453125 C 20.488281 -73.453125 18.320312 -72.28125 16.78125 -69.9375 C 15.238281 -67.601562 14.46875 -63.347656 14.46875 -57.171875 L 14.46875 -21.921875 C 14.46875 -15.742188 15.238281 -11.488281 16.78125 -9.15625 C 18.320312 -6.820312 20.488281 -5.65625 23.28125 -5.65625 C 29.082031 -5.65625 31.984375 -11.078125 31.984375 -21.921875 Z M 31.984375 -21.921875 "/></g></g></g><g fill="#ffffff" fill-opacity="1"><g transform="translate(463.286266, 969.275619)"><g/></g></g><g fill="#ffffff" fill-opacity="1"><g transform="translate(489.390452, 969.275619)"><g><path d="M 7.125 0 L 7.125 -79.09375 L 16.15625 -79.09375 L 16.15625 0 Z M 7.125 0 "/></g></g></g><g fill="#ffffff" fill-opacity="1"><g transform="translate(522.500765, 969.275619)"><g><path d="M 31.40625 -17.734375 C 31.40625 -23.765625 29.375 -28.398438 25.3125 -31.640625 L 16.265625 -38.3125 C 9.492188 -43.125 6.109375 -50.238281 6.109375 -59.65625 C 6.109375 -67.5 7.59375 -72.984375 10.5625 -76.109375 C 13.539062 -79.234375 17.609375 -80.796875 22.765625 -80.796875 C 27.929688 -80.796875 31.941406 -79.34375 34.796875 -76.4375 C 37.660156 -73.539062 39.394531 -68.289062 40 -60.6875 L 31.40625 -58.765625 C 31.113281 -68.398438 28.3125 -73.21875 23 -73.21875 C 17.6875 -73.21875 15.03125 -69.113281 15.03125 -60.90625 C 15.03125 -57.289062 15.425781 -54.351562 16.21875 -52.09375 C 17.007812 -49.832031 18.535156 -47.796875 20.796875 -45.984375 L 29.71875 -39.328125 C 31.832031 -37.816406 33.523438 -36.382812 34.796875 -35.03125 C 36.078125 -33.675781 37.300781 -31.507812 38.46875 -28.53125 C 39.644531 -25.550781 40.234375 -22.03125 40.234375 -17.96875 C 40.234375 -10.738281 38.664062 -5.65625 35.53125 -2.71875 C 32.40625 0.21875 28.164062 1.6875 22.8125 1.6875 C 17.46875 1.6875 13.289062 -0.0390625 10.28125 -3.5 C 7.269531 -6.96875 5.425781 -13.144531 4.75 -22.03125 L 13.21875 -23.5 C 13.519531 -17.101562 14.441406 -12.546875 15.984375 -9.828125 C 17.535156 -7.117188 19.703125 -5.765625 22.484375 -5.765625 C 28.429688 -5.765625 31.40625 -9.753906 31.40625 -17.734375 Z M 31.40625 -17.734375 "/></g></g></g><g fill="#ffffff" fill-opacity="1"><g transform="translate(577.307544, 969.275619)"><g/></g></g><g fill="#ffffff" fill-opacity="1"><g transform="translate(603.41173, 969.275619)"><g><path d="M 1.46875 -71.875 L 1.46875 -79.09375 L 32.3125 -79.09375 L 32.3125 -71.875 L 21.359375 -71.875 L 21.359375 0 L 12.4375 0 L 12.4375 -71.875 Z M 1.46875 -71.875 "/></g></g></g><g fill="#ffffff" fill-opacity="1"><g transform="translate(647.031282, 969.275619)"><g><path d="M 33.21875 0 L 33.21875 -35.828125 L 16.15625 -35.828125 L 16.15625 0 L 7.125 0 L 7.125 -79.09375 L 16.15625 -79.09375 L 16.15625 -43.046875 L 33.21875 -43.046875 L 33.21875 -79.09375 L 42.15625 -79.09375 L 42.15625 0 Z M 33.21875 0 "/></g></g></g><g fill="#ffffff" fill-opacity="1"><g transform="translate(706.132158, 969.275619)"><g><path d="M 7.125 0 L 7.125 -79.09375 L 16.15625 -79.09375 L 16.15625 0 Z M 7.125 0 "/></g></g></g><g fill="#ffffff" fill-opacity="1"><g transform="translate(739.242495, 969.275619)"><g><path d="M 31.40625 -17.734375 C 31.40625 -23.765625 29.375 -28.398438 25.3125 -31.640625 L 16.265625 -38.3125 C 9.492188 -43.125 6.109375 -50.238281 6.109375 -59.65625 C 6.109375 -67.5 7.59375 -72.984375 10.5625 -76.109375 C 13.539062 -79.234375 17.609375 -80.796875 22.765625 -80.796875 C 27.929688 -80.796875 31.941406 -79.34375 34.796875 -76.4375 C 37.660156 -73.539062 39.394531 -68.289062 40 -60.6875 L 31.40625 -58.765625 C 31.113281 -68.398438 28.3125 -73.21875 23 -73.21875 C 17.6875 -73.21875 15.03125 -69.113281 15.03125 -60.90625 C 15.03125 -57.289062 15.425781 -54.351562 16.21875 -52.09375 C 17.007812 -49.832031 18.535156 -47.796875 20.796875 -45.984375 L 29.71875 -39.328125 C 31.832031 -37.816406 33.523438 -36.382812 34.796875 -35.03125 C 36.078125 -33.675781 37.300781 -31.507812 38.46875 -28.53125 C 39.644531 -25.550781 40.234375 -22.03125 40.234375 -17.96875 C 40.234375 -10.738281 38.664062 -5.65625 35.53125 -2.71875 C 32.40625 0.21875 28.164062 1.6875 22.8125 1.6875 C 17.46875 1.6875 13.289062 -0.0390625 10.28125 -3.5 C 7.269531 -6.96875 5.425781 -13.144531 4.75 -22.03125 L 13.21875 -23.5 C 13.519531 -17.101562 14.441406 -12.546875 15.984375 -9.828125 C 17.535156 -7.117188 19.703125 -5.765625 22.484375 -5.765625 C 28.429688 -5.765625 31.40625 -9.753906 31.40625 -17.734375 Z M 31.40625 -17.734375 "/></g></g></g><g fill="#ffffff" fill-opacity="1"><g transform="translate(273.161469, 1106.866112)"><g><path d="M 22.03125 -34.6875 L 22.03125 -41.921875 L 39.78125 -41.921875 L 39.78125 -0.109375 L 34.234375 -0.109375 L 32.65625 -7.453125 C 30.394531 -1.359375 26.328125 1.6875 20.453125 1.6875 C 15.703125 1.6875 12.023438 -0.132812 9.421875 -3.78125 C 6.828125 -7.4375 5.53125 -14.046875 5.53125 -23.609375 L 5.53125 -54.921875 C 5.53125 -64.785156 7.035156 -71.5625 10.046875 -75.25 C 13.066406 -78.945312 17.117188 -80.796875 22.203125 -80.796875 C 27.285156 -80.796875 31.164062 -79.476562 33.84375 -76.84375 C 36.519531 -74.207031 38.160156 -69.5 38.765625 -62.71875 L 30.515625 -60.6875 C 30.054688 -65.5 29.207031 -68.828125 27.96875 -70.671875 C 26.726562 -72.523438 24.882812 -73.453125 22.4375 -73.453125 C 19.988281 -73.453125 18.046875 -72.265625 16.609375 -69.890625 C 15.179688 -67.515625 14.46875 -63.164062 14.46875 -56.84375 L 14.46875 -21.921875 C 14.46875 -15.742188 15.160156 -11.488281 16.546875 -9.15625 C 17.941406 -6.820312 19.921875 -5.65625 22.484375 -5.65625 C 28.210938 -5.65625 31.148438 -10.738281 31.296875 -20.90625 L 31.296875 -34.6875 Z M 22.03125 -34.6875 "/></g></g></g><g fill="#ffffff" fill-opacity="1"><g transform="translate(329.09827, 1106.866112)"><g><path d="M 40.90625 -55.484375 L 40.90625 -23.609375 C 40.90625 -14.046875 39.378906 -7.4375 36.328125 -3.78125 C 33.273438 -0.132812 28.90625 1.6875 23.21875 1.6875 C 17.53125 1.6875 13.160156 -0.132812 10.109375 -3.78125 C 7.054688 -7.4375 5.53125 -14.046875 5.53125 -23.609375 L 5.53125 -55.484375 C 5.53125 -65.046875 7.054688 -71.65625 10.109375 -75.3125 C 13.160156 -78.96875 17.53125 -80.796875 23.21875 -80.796875 C 28.90625 -80.796875 33.273438 -78.96875 36.328125 -75.3125 C 39.378906 -71.65625 40.90625 -65.046875 40.90625 -55.484375 Z M 31.984375 -21.921875 L 31.984375 -57.171875 C 31.984375 -68.023438 29.082031 -73.453125 23.28125 -73.453125 C 20.488281 -73.453125 18.320312 -72.28125 16.78125 -69.9375 C 15.238281 -67.601562 14.46875 -63.347656 14.46875 -57.171875 L 14.46875 -21.921875 C 14.46875 -15.742188 15.238281 -11.488281 16.78125 -9.15625 C 18.320312 -6.820312 20.488281 -5.65625 23.28125 -5.65625 C 29.082031 -5.65625 31.984375 -11.078125 31.984375 -21.921875 Z M 31.984375 -21.921875 "/></g></g></g><g fill="#ffffff" fill-opacity="1"><g transform="translate(385.374078, 1106.866112)"><g><path d="M 7.125 0 L 7.125 -79.09375 L 22.484375 -79.09375 C 28.210938 -79.09375 32.617188 -77.265625 35.703125 -73.609375 C 38.796875 -69.960938 40.34375 -63.351562 40.34375 -53.78125 L 40.34375 -25.3125 C 40.34375 -15.75 38.796875 -9.140625 35.703125 -5.484375 C 32.617188 -1.828125 28.210938 0 22.484375 0 Z M 31.40625 -23.28125 L 31.40625 -55.703125 C 31.40625 -66.484375 28.429688 -71.875 22.484375 -71.875 L 16.15625 -71.875 L 16.15625 -7.125 L 22.484375 -7.125 C 28.429688 -7.125 31.40625 -12.507812 31.40625 -23.28125 Z M 31.40625 -23.28125 "/></g></g></g><g fill="#ffffff" fill-opacity="1"><g transform="translate(441.084873, 1106.866112)"><g/></g></g><g fill="#ffffff" fill-opacity="1"><g transform="translate(467.189046, 1106.866112)"><g><path d="M 7.125 0 L 7.125 -79.09375 L 21.125 -79.09375 C 26.78125 -79.09375 31.132812 -77.265625 34.1875 -73.609375 C 37.238281 -69.960938 38.765625 -63.351562 38.765625 -53.78125 L 38.765625 -53.21875 C 38.765625 -43.65625 37.238281 -37.066406 34.1875 -33.453125 C 31.132812 -29.835938 26.78125 -28.03125 21.125 -28.03125 L 16.15625 -28.03125 L 16.15625 0 Z M 29.828125 -51.75 L 29.828125 -55.25 C 29.828125 -66.332031 26.925781 -71.875 21.125 -71.875 L 16.15625 -71.875 L 16.15625 -35.140625 L 21.125 -35.140625 C 26.925781 -35.140625 29.828125 -40.675781 29.828125 -51.75 Z M 29.828125 -51.75 "/></g></g></g><g fill="#ffffff" fill-opacity="1"><g transform="translate(518.04075, 1106.866112)"><g><path d="M 16.15625 -35.828125 L 16.15625 -7.234375 L 35.828125 -7.234375 L 35.828125 0 L 7.125 0 L 7.125 -79.09375 L 35.484375 -79.09375 L 35.484375 -71.875 L 16.15625 -71.875 L 16.15625 -43.046875 L 33.78125 -43.046875 L 33.78125 -35.828125 Z M 16.15625 -35.828125 "/></g></g></g><g fill="#ffffff" fill-opacity="1"><g transform="translate(568.44044, 1106.866112)"><g><path d="M 7.125 0 L 7.125 -79.09375 L 21.125 -79.09375 C 26.707031 -79.09375 31.039062 -77.320312 34.125 -73.78125 C 37.21875 -70.25 38.765625 -63.882812 38.765625 -54.6875 L 38.765625 -54.125 C 38.765625 -42.675781 35.972656 -35.40625 30.390625 -32.3125 L 39.78125 0 L 30.515625 0 L 21.703125 -30.28125 L 16.15625 -30.28125 L 16.15625 0 Z M 29.828125 -53 L 29.828125 -56.390625 C 29.828125 -62.191406 29.054688 -66.222656 27.515625 -68.484375 C 25.972656 -70.742188 23.84375 -71.875 21.125 -71.875 L 16.15625 -71.875 L 16.15625 -37.40625 L 21.125 -37.40625 C 26.925781 -37.40625 29.828125 -42.601562 29.828125 -53 Z M 29.828125 -53 "/></g></g></g><g fill="#ffffff" fill-opacity="1"><g transform="translate(621.891192, 1106.866112)"><g><path d="M 31.40625 -17.734375 C 31.40625 -23.765625 29.375 -28.398438 25.3125 -31.640625 L 16.265625 -38.3125 C 9.492188 -43.125 6.109375 -50.238281 6.109375 -59.65625 C 6.109375 -67.5 7.59375 -72.984375 10.5625 -76.109375 C 13.539062 -79.234375 17.609375 -80.796875 22.765625 -80.796875 C 27.929688 -80.796875 31.941406 -79.34375 34.796875 -76.4375 C 37.660156 -73.539062 39.394531 -68.289062 40 -60.6875 L 31.40625 -58.765625 C 31.113281 -68.398438 28.3125 -73.21875 23 -73.21875 C 17.6875 -73.21875 15.03125 -69.113281 15.03125 -60.90625 C 15.03125 -57.289062 15.425781 -54.351562 16.21875 -52.09375 C 17.007812 -49.832031 18.535156 -47.796875 20.796875 -45.984375 L 29.71875 -39.328125 C 31.832031 -37.816406 33.523438 -36.382812 34.796875 -35.03125 C 36.078125 -33.675781 37.300781 -31.507812 38.46875 -28.53125 C 39.644531 -25.550781 40.234375 -22.03125 40.234375 -17.96875 C 40.234375 -10.738281 38.664062 -5.65625 35.53125 -2.71875 C 32.40625 0.21875 28.164062 1.6875 22.8125 1.6875 C 17.46875 1.6875 13.289062 -0.0390625 10.28125 -3.5 C 7.269531 -6.96875 5.425781 -13.144531 4.75 -22.03125 L 13.21875 -23.5 C 13.519531 -17.101562 14.441406 -12.546875 15.984375 -9.828125 C 17.535156 -7.117188 19.703125 -5.765625 22.484375 -5.765625 C 28.429688 -5.765625 31.40625 -9.753906 31.40625 -17.734375 Z M 31.40625 -17.734375 "/></g></g></g><g fill="#ffffff" fill-opacity="1"><g transform="translate(676.697971, 1106.866112)"><g><path d="M 40.90625 -55.484375 L 40.90625 -23.609375 C 40.90625 -14.046875 39.378906 -7.4375 36.328125 -3.78125 C 33.273438 -0.132812 28.90625 1.6875 23.21875 1.6875 C 17.53125 1.6875 13.160156 -0.132812 10.109375 -3.78125 C 7.054688 -7.4375 5.53125 -14.046875 5.53125 -23.609375 L 5.53125 -55.484375 C 5.53125 -65.046875 7.054688 -71.65625 10.109375 -75.3125 C 13.160156 -78.96875 17.53125 -80.796875 23.21875 -80.796875 C 28.90625 -80.796875 33.273438 -78.96875 36.328125 -75.3125 C 39.378906 -71.65625 40.90625 -65.046875 40.90625 -55.484375 Z M 31.984375 -21.921875 L 31.984375 -57.171875 C 31.984375 -68.023438 29.082031 -73.453125 23.28125 -73.453125 C 20.488281 -73.453125 18.320312 -72.28125 16.78125 -69.9375 C 15.238281 -67.601562 14.46875 -63.347656 14.46875 -57.171875 L 14.46875 -21.921875 C 14.46875 -15.742188 15.238281 -11.488281 16.78125 -9.15625 C 18.320312 -6.820312 20.488281 -5.65625 23.28125 -5.65625 C 29.082031 -5.65625 31.984375 -11.078125 31.984375 -21.921875 Z M 31.984375 -21.921875 "/></g></g></g><g fill="#ffffff" fill-opacity="1"><g transform="translate(732.973773, 1106.866112)"><g><path d="M 15.9375 0 L 7.125 0 L 7.125 -79.09375 L 16.5 -79.09375 L 34.921875 -21.25 L 34.921875 -79.09375 L 43.734375 -79.09375 L 43.734375 0 L 34.359375 0 L 15.9375 -57.75 Z M 15.9375 0 "/></g></g></g><g fill="#ffffff" fill-opacity="1"><g transform="translate(333.897991, 1244.456605)"><g><path d="M 33.671875 0 L 30.171875 -20.5625 L 14.234375 -20.5625 L 10.84375 0 L 1.8125 0 L 16.265625 -79.09375 L 28.25 -79.09375 L 42.71875 0 Z M 22.265625 -67.6875 L 15.484375 -27.796875 L 28.921875 -27.796875 Z M 22.265625 -67.6875 "/></g></g></g><g fill="#ffffff" fill-opacity="1"><g transform="translate(388.252764, 1244.456605)"><g><path d="M 15.9375 0 L 7.125 0 L 7.125 -79.09375 L 16.5 -79.09375 L 34.921875 -21.25 L 34.921875 -79.09375 L 43.734375 -79.09375 L 43.734375 0 L 34.359375 0 L 15.9375 -57.75 Z M 15.9375 0 "/></g></g></g><g fill="#ffffff" fill-opacity="1"><g transform="translate(448.935662, 1244.456605)"><g><path d="M 25.53125 0 L 16.71875 0 L 16.71875 -26.4375 L 1.8125 -79.09375 L 10.625 -79.09375 L 21.125 -38.3125 L 31.53125 -79.09375 L 40.34375 -79.09375 L 25.53125 -26.4375 Z M 25.53125 0 "/></g></g></g><g fill="#ffffff" fill-opacity="1"><g transform="translate(501.030374, 1244.456605)"><g><path d="M 42.03125 0 L 32.65625 -57.515625 L 23.28125 0 L 14.015625 0 L 2.140625 -79.09375 L 11.1875 -79.09375 L 19.328125 -18.53125 L 29.265625 -79.09375 L 36.265625 -79.09375 L 45.875 -18.640625 L 54.125 -79.09375 L 63.171875 -79.09375 L 51.296875 0 Z M 42.03125 0 "/></g></g></g><g fill="#ffffff" fill-opacity="1"><g transform="translate(576.177581, 1244.456605)"><g><path d="M 33.671875 0 L 30.171875 -20.5625 L 14.234375 -20.5625 L 10.84375 0 L 1.8125 0 L 16.265625 -79.09375 L 28.25 -79.09375 L 42.71875 0 Z M 22.265625 -67.6875 L 15.484375 -27.796875 L 28.921875 -27.796875 Z M 22.265625 -67.6875 "/></g></g></g><g fill="#ffffff" fill-opacity="1"><g transform="translate(630.53236, 1244.456605)"><g><path d="M 25.53125 0 L 16.71875 0 L 16.71875 -26.4375 L 1.8125 -79.09375 L 10.625 -79.09375 L 21.125 -38.3125 L 31.53125 -79.09375 L 40.34375 -79.09375 L 25.53125 -26.4375 Z M 25.53125 0 "/></g></g></g><g fill="#ffffff" fill-opacity="1"><g transform="translate(682.627084, 1244.456605)"><g><path d="M 22.140625 -18.984375 L 15.375 -18.984375 C 15.375 -27.953125 17.160156 -36.085938 20.734375 -43.390625 C 24.316406 -50.703125 26.109375 -56.691406 26.109375 -61.359375 C 26.109375 -66.023438 25.484375 -69.207031 24.234375 -70.90625 C 22.992188 -72.601562 21.222656 -73.453125 18.921875 -73.453125 C 16.628906 -73.453125 14.859375 -72.414062 13.609375 -70.34375 C 12.367188 -68.269531 11.523438 -64.445312 11.078125 -58.875 L 3.046875 -60.109375 C 3.648438 -67.796875 5.289062 -73.164062 7.96875 -76.21875 C 10.644531 -79.269531 14.429688 -80.796875 19.328125 -80.796875 C 24.222656 -80.796875 28.046875 -79.398438 30.796875 -76.609375 C 33.546875 -73.828125 34.921875 -69.101562 34.921875 -62.4375 C 34.921875 -55.769531 32.789062 -48.421875 28.53125 -40.390625 C 24.269531 -32.367188 22.140625 -25.234375 22.140625 -18.984375 Z M 14.34375 0 L 14.34375 -10.390625 L 23.28125 -10.390625 L 23.28125 0 Z M 14.34375 0 "/></g></g></g><g fill="#ffffff" fill-opacity="1"><g transform="translate(389.104654, 1522.422395)"><g><path d="M 9.410156 0.21875 C 13.898438 0.21875 17.394531 -2.902344 17.394531 -8.050781 C 17.394531 -13.179688 13.898438 -16.296875 9.410156 -16.296875 C 4.875 -16.296875 1.40625 -13.179688 1.40625 -8.050781 C 1.40625 -2.902344 4.875 0.21875 9.410156 0.21875 Z M 9.410156 -1.714844 C 6.074219 -1.714844 3.4375 -3.996094 3.4375 -8.050781 C 3.4375 -12.0625 6.074219 -14.34375 9.410156 -14.34375 C 12.722656 -14.34375 15.351562 -12.0625 15.351562 -8.050781 C 15.351562 -3.996094 12.722656 -1.714844 9.410156 -1.714844 Z M 9.410156 -1.714844 "/></g></g></g><g fill="#ffffff" fill-opacity="1"><g transform="translate(412.067042, 1522.422395)"><g><path d="M 9.410156 0.21875 C 13.898438 0.21875 17.394531 -2.902344 17.394531 -8.050781 C 17.394531 -13.179688 13.898438 -16.296875 9.410156 -16.296875 C 4.875 -16.296875 1.40625 -13.179688 1.40625 -8.050781 C 1.40625 -2.902344 4.875 0.21875 9.410156 0.21875 Z M 9.410156 -1.714844 C 6.074219 -1.714844 3.4375 -3.996094 3.4375 -8.050781 C 3.4375 -12.0625 6.074219 -14.34375 9.410156 -14.34375 C 12.722656 -14.34375 15.351562 -12.0625 15.351562 -8.050781 C 15.351562 -3.996094 12.722656 -1.714844 9.410156 -1.714844 Z M 9.410156 -1.714844 "/></g></g></g><g fill="#ffffff" fill-opacity="1"><g transform="translate(435.02943, 1522.422395)"><g><path d="M 4.570312 -1.863281 L 4.570312 -16.082031 L 2.523438 -16.082031 L 2.523438 0 L 10.152344 0 L 10.152344 -1.863281 Z M 4.570312 -1.863281 "/></g></g></g><g fill="#ffffff" fill-opacity="1"><g transform="translate(449.997341, 1522.422395)"><g><path d="M 9.410156 0.21875 C 13.898438 0.21875 17.394531 -2.902344 17.394531 -8.050781 C 17.394531 -13.179688 13.898438 -16.296875 9.410156 -16.296875 C 4.875 -16.296875 1.40625 -13.179688 1.40625 -8.050781 C 1.40625 -2.902344 4.875 0.21875 9.410156 0.21875 Z M 9.410156 -1.714844 C 6.074219 -1.714844 3.4375 -3.996094 3.4375 -8.050781 C 3.4375 -12.0625 6.074219 -14.34375 9.410156 -14.34375 C 12.722656 -14.34375 15.351562 -12.0625 15.351562 -8.050781 C 15.351562 -3.996094 12.722656 -1.714844 9.410156 -1.714844 Z M 9.410156 -1.714844 "/></g></g></g><g fill="#ffffff" fill-opacity="1"><g transform="translate(472.959731, 1522.422395)"><g><path d="M 13.328125 -16.082031 L 13.328125 -3.128906 L 4.660156 -16.082031 L 2.523438 -16.082031 L 2.523438 0 L 4.535156 0 L 4.535156 -13.007812 L 13.203125 0 L 15.363281 0 L 15.363281 -16.082031 Z M 13.328125 -16.082031 "/></g></g></g><g fill="#ffffff" fill-opacity="1"><g transform="translate(495.008467, 1522.422395)"><g/></g></g><g fill="#ffffff" fill-opacity="1"><g transform="translate(505.248222, 1522.422395)"><g><path d="M 9.410156 0.21875 C 12.585938 0.21875 15.257812 -1.347656 16.515625 -4.054688 L 14.628906 -4.820312 C 13.648438 -2.832031 11.707031 -1.734375 9.410156 -1.734375 C 6.074219 -1.734375 3.4375 -4.019531 3.4375 -8.050781 C 3.4375 -12.0625 6.074219 -14.34375 9.410156 -14.34375 C 11.707031 -14.34375 13.648438 -13.238281 14.628906 -11.25 L 16.515625 -12.027344 C 15.257812 -14.722656 12.585938 -16.296875 9.410156 -16.296875 C 4.875 -16.296875 1.40625 -13.179688 1.40625 -8.050781 C 1.40625 -2.902344 4.875 0.21875 9.410156 0.21875 Z M 9.410156 0.21875 "/></g></g></g><g fill="#ffffff" fill-opacity="1"><g transform="translate(526.908655, 1522.422395)"><g><path d="M 9.410156 0.21875 C 13.898438 0.21875 17.394531 -2.902344 17.394531 -8.050781 C 17.394531 -13.179688 13.898438 -16.296875 9.410156 -16.296875 C 4.875 -16.296875 1.40625 -13.179688 1.40625 -8.050781 C 1.40625 -2.902344 4.875 0.21875 9.410156 0.21875 Z M 9.410156 -1.714844 C 6.074219 -1.714844 3.4375 -3.996094 3.4375 -8.050781 C 3.4375 -12.0625 6.074219 -14.34375 9.410156 -14.34375 C 12.722656 -14.34375 15.351562 -12.0625 15.351562 -8.050781 C 15.351562 -3.996094 12.722656 -1.714844 9.410156 -1.714844 Z M 9.410156 -1.714844 "/></g></g></g><g fill="#ffffff" fill-opacity="1"><g transform="translate(549.871046, 1522.422395)"><g><path d="M 4.570312 -1.863281 L 4.570312 -16.082031 L 2.523438 -16.082031 L 2.523438 0 L 10.152344 0 L 10.152344 -1.863281 Z M 4.570312 -1.863281 "/></g></g></g><g fill="#ffffff" fill-opacity="1"><g transform="translate(564.838961, 1522.422395)"><g><path d="M 4.570312 -1.863281 L 4.570312 -16.082031 L 2.523438 -16.082031 L 2.523438 0 L 10.152344 0 L 10.152344 -1.863281 Z M 4.570312 -1.863281 "/></g></g></g><g fill="#ffffff" fill-opacity="1"><g transform="translate(579.806867, 1522.422395)"><g><path d="M 8.027344 0.21875 C 11.351562 0.21875 13.898438 -1.792969 13.898438 -5.332031 L 13.898438 -16.082031 L 11.855469 -16.082031 L 11.855469 -5.621094 C 11.855469 -2.945312 10.164062 -1.644531 8.027344 -1.644531 C 5.894531 -1.644531 4.238281 -2.921875 4.238281 -5.621094 L 4.238281 -16.082031 L 2.191406 -16.082031 L 2.191406 -5.332031 C 2.191406 -1.792969 4.726562 0.21875 8.027344 0.21875 Z M 8.027344 0.21875 "/></g></g></g><g fill="#ffffff" fill-opacity="1"><g transform="translate(600.062556, 1522.422395)"><g><path d="M 11.535156 -15.121094 C 10.597656 -15.773438 9.273438 -16.082031 7.46875 -16.082031 L 2.523438 -16.082031 L 2.523438 0 L 4.570312 0 L 4.570312 -6.246094 L 7.46875 -6.246094 C 9.332031 -6.246094 10.691406 -6.636719 11.625 -7.445312 C 12.722656 -8.292969 13.261719 -9.671875 13.261719 -11.410156 C 13.261719 -13.144531 12.6875 -14.378906 11.535156 -15.121094 Z M 10.347656 -8.910156 C 9.695312 -8.246094 8.644531 -8.027344 7.207031 -8.027344 L 4.570312 -8.027344 L 4.570312 -14.3125 L 7.207031 -14.3125 C 8.613281 -14.3125 9.628906 -14.164062 10.3125 -13.601562 C 10.851562 -13.15625 11.167969 -12.425781 11.167969 -11.328125 C 11.167969 -10.1875 10.871094 -9.421875 10.347656 -8.910156 Z M 10.347656 -8.910156 "/></g></g></g><g fill="#ffffff" fill-opacity="1"><g transform="translate(618.582302, 1522.422395)"><g><path d="M 2.523438 0 L 4.578125 0 L 4.578125 -7.136719 L 12.722656 -7.136719 L 12.722656 0 L 14.765625 0 L 14.765625 -16.082031 L 12.722656 -16.082031 L 12.722656 -8.976562 L 4.578125 -8.976562 L 4.578125 -16.082031 L 2.523438 -16.082031 Z M 2.523438 0 "/></g></g></g><g fill="#ffffff" fill-opacity="1"><g transform="translate(640.037153, 1522.422395)"><g><path d="M 2.523438 0 L 4.570312 0 L 4.570312 -16.082031 L 2.523438 -16.082031 Z M 2.523438 0 "/></g></g></g><g fill="#ffffff" fill-opacity="1"><g transform="translate(651.293348, 1522.422395)"><g><path d="M 2.523438 0 L 7.710938 0 C 12.621094 0 15.132812 -3.335938 15.132812 -8.050781 C 15.132812 -12.746094 12.621094 -16.082031 7.710938 -16.082031 L 2.523438 -16.082031 Z M 4.570312 -1.863281 L 4.570312 -14.21875 L 7.640625 -14.21875 C 11.273438 -14.21875 13.007812 -11.773438 13.007812 -8.050781 C 13.007812 -4.292969 11.273438 -1.863281 7.640625 -1.863281 Z M 4.570312 -1.863281 "/></g></g></g></svg>